<?xml version="1.0" standalone="no"?>
<!DOCTYPE svg PUBLIC "-//W3C//DTD SVG 20010904//EN"
 "http://www.w3.org/TR/2001/REC-SVG-20010904/DTD/svg10.dtd">
<svg version="1.0" xmlns="http://www.w3.org/2000/svg"
 width="839.000000pt" height="839.000000pt" viewBox="0 0 839.000000 839.000000"
 preserveAspectRatio="xMidYMid meet">
<metadata>
Created by potrace 1.11, written by Peter Selinger 2001-2013
</metadata>
<g transform="translate(0.000000,839.000000) scale(0.100000,-0.100000)"
fill="#000000" stroke="none">
<path d="M2787 5532 c-14 -42 -60 -176 -102 -297 -42 -121 -99 -283 -125 -360
-27 -77 -79 -225 -115 -330 -37 -104 -72 -206 -77 -225 -6 -19 -13 -39 -16
-45 -4 -5 -7 -14 -8 -20 -2 -5 -36 -107 -77 -225 -126 -359 -225 -643 -312
-895 -46 -132 -90 -260 -99 -284 -9 -24 -16 -47 -16 -52 0 -5 132 -9 293 -9
l292 0 22 63 c11 34 46 139 76 232 30 94 69 216 88 273 l33 102 496 0 496 0
51 -162 c28 -90 75 -239 105 -333 l54 -170 422 -3 422 -2 0 47 c1 27 1 292 1
589 l0 541 634 0 635 0 0 -31 c1 -17 1 -282 1 -588 l1 -558 294 0 294 0 0
1410 0 1409 -294 0 -294 -1 0 -558 c0 -307 -3 -563 -6 -568 -3 -6 -249 -10
-636 -10 l-630 0 1 447 c0 245 0 501 -1 568 l0 122 -294 0 -293 0 -1 -792 c-1
-923 -1 -921 -12 -887 -4 14 -44 129 -88 255 -44 127 -119 343 -166 480 -48
138 -104 300 -126 360 -21 61 -64 184 -95 275 -31 91 -68 197 -82 237 l-25 72
-348 0 -348 0 -25 -77z m378 -524 c2 -7 34 -107 70 -223 36 -115 75 -237 85
-270 99 -309 182 -576 184 -589 1 -9 -710 -15 -723 -6 -4 3 5 43 20 90 44 136
182 567 256 798 55 173 71 212 85 212 10 0 20 -6 23 -12z"/>
</g>
</svg>
