<?xml version="1.0" encoding="UTF-8" standalone="no"?>
<svg width="64px" height="64px" viewBox="0 0 64 64" version="1.1" xmlns="http://www.w3.org/2000/svg" xmlns:xlink="http://www.w3.org/1999/xlink">
    <!-- Generator: Sketch 3.6.1 (26313) - http://www.bohemiancoding.com/sketch -->
    <title>Process-Maintenance</title>
    <desc>Created with Sketch.</desc>
    <defs></defs>
    <g id="Content" stroke="none" stroke-width="1" fill="none" fill-rule="evenodd">
        <g id="Process-Maintenance" transform="translate(0.000000, -1.000000)" fill="#CC3E4A">
            <g id="Group">
                <g id="Shape">
                    <path d="M3.03,2.06 L1.334,3.756 C-0.079,5.169 -0.079,7.483 1.334,8.896 L25.005,31.539 C25.068,31.602 25.135,31.652 25.2,31.712 C23.741,34.944 23.985,38.838 26.199,41.927 C28.445,45.065 32.136,46.554 35.718,46.148 L30.632,39.052 C29.76,37.834 30.043,36.125 31.261,35.252 L34.96,32.604 C36.177,31.733 37.886,32.014 38.759,33.232 L43.843,40.33 C45.38,37.07 45.157,33.098 42.909,29.96 C40.206,26.189 35.427,24.803 31.25,26.225 C31.115,26.056 30.972,25.891 30.812,25.733 L8.17,2.06 C6.757,0.646 4.443,0.646 3.03,2.06 L3.03,2.06 Z M7.612,5.099 C8.507,5.994 8.507,7.444 7.612,8.338 C6.718,9.233 5.268,9.233 4.374,8.338 C3.48,7.444 3.48,5.994 4.375,5.1 C5.269,4.205 6.719,4.205 7.612,5.099 L7.612,5.099 Z"></path>
                    <path d="M63.726,38.507 L63.726,29.966 L57.708,29.241 C57.054,25.98 55.77,22.949 53.991,20.274 L57.735,15.503 L51.696,9.463 L46.925,13.209 C44.249,11.43 41.218,10.146 37.958,9.492 L37.233,3.472 L28.691,3.472 L27.965,9.492 C25.783,9.93 23.709,10.655 21.771,11.615 L27.664,18.096 C29.333,17.549 31.11,17.242 32.964,17.242 C42.347,17.242 49.956,24.85 49.956,34.235 C49.956,43.62 42.347,51.228 32.964,51.228 C23.577,51.228 15.969,43.62 15.969,34.235 C15.969,32.242 16.33,30.338 16.961,28.56 L10.183,23.358 C9.299,25.206 8.631,27.176 8.216,29.24 L2.198,29.965 L2.198,38.506 L8.217,39.232 C8.871,42.492 10.155,45.524 11.936,48.198 L8.19,52.97 L14.229,59.008 L19.001,55.264 C21.675,57.043 24.706,58.327 27.966,58.981 L28.691,65 L37.233,65 L37.958,58.981 C41.218,58.327 44.251,57.043 46.925,55.264 L51.696,59.008 L57.735,52.97 L53.991,48.198 C55.768,45.523 57.054,42.492 57.708,39.232 L63.726,38.507 L63.726,38.507 Z"></path>
                </g>
            </g>
        </g>
    </g>
</svg>