<?xml version="1.0" encoding="UTF-8" standalone="no"?>
<svg width="90px" height="90px" viewBox="0 0 90 90" version="1.1" xmlns="http://www.w3.org/2000/svg" xmlns:xlink="http://www.w3.org/1999/xlink">
    <!-- Generator: Sketch 3.6.1 (26313) - http://www.bohemiancoding.com/sketch -->
    <title>Process-Proposals</title>
    <desc>Created with Sketch.</desc>
    <defs></defs>
    <g id="Content" stroke="none" stroke-width="1" fill="none" fill-rule="evenodd">
        <g id="Process-Proposals" transform="translate(0.000000, -1.000000)" fill="#CC3E4A">
            <g id="Group">
                <g>
                    <rect id="Rectangle-path" x="49.09" y="17.363" width="4.09" height="24.546"></rect>
                    <rect id="Rectangle-path" x="42.953" y="23.5" width="4.09" height="18.409"></rect>
                    <rect id="Rectangle-path" x="36.816" y="29.636" width="4.09" height="12.273"></rect>
                    <path d="M90,5.09 L90,0.999 L83.863,0.999 L6.133,0.999 L0,0.999 L0,5.09 L6.133,5.09 L6.133,56.227 L0,56.227 L0,60.318 L42.953,60.318 L42.953,74.433 L24.545,91.001 L30.679,91.001 L42.953,80.482 L42.953,88.955 L47.043,88.955 L47.043,80.261 L61.361,91.001 L67.498,91.001 L47.044,74.263 L47.044,60.318 L90,60.318 L90,56.227 L83.863,56.227 L83.863,5.09 L90,5.09 L90,5.09 Z M79.773,56.227 L47.044,56.227 L42.954,56.227 L10.227,56.227 L10.227,5.09 L79.772,5.09 L79.772,56.227 L79.773,56.227 Z" id="Shape"></path>
                </g>
            </g>
        </g>
    </g>
</svg>