<?xml version="1.0" encoding="UTF-8" standalone="no"?>
<svg width="139px" height="69px" viewBox="0 0 139 69" version="1.1" xmlns="http://www.w3.org/2000/svg" xmlns:xlink="http://www.w3.org/1999/xlink">
    <!-- Generator: Sketch 3.6.1 (26313) - http://www.bohemiancoding.com/sketch -->
    <title>Pune Landmark</title>
    <desc>Created with Sketch.</desc>
    <defs></defs>
    <g id="Content" stroke="none" stroke-width="1" fill="none" fill-rule="evenodd">
        <g id="Pune-Landmark" fill="#CC3D4A">
            <g id="Side-Tower-2" transform="translate(0.000000, 7.137520)">
                <path d="M0,61.1787427 L43.8493443,61.1787427 L43.8493443,58.7995694 L43.5094269,58.1198056 L43.5094269,17.3339771 C43.5094269,17.3339771 32.6206645,14.9548038 21.9246721,14.9548038 C11.2286798,14.9548038 0.339917397,17.3339771 0.339917397,17.3339771 L0.679834795,57.4400418 L0,58.4596875 L0,61.1787427 Z M0.339917397,16.6542133 L0.339917397,12.9155123 C0.339917397,12.9155123 10.9056185,10.8762209 21.7547134,10.8762209 C32.6038083,10.8762209 43.5094269,12.9155123 43.5094269,12.9155123 L43.5094269,16.3143314 C43.5094269,16.3143314 32.7993797,14.1880832 21.7547134,14.27504 C10.7100472,14.3619968 0.339917397,16.6542133 0.339917397,16.6542133 Z M9.17776973,4.07858285 C3.89132795,5.1481568 0.339917397,6.79763808 0.339917397,6.79763808 L0.339917397,12.2357485 C0.339917397,12.2357485 10.8913745,10.1964571 21.7547134,10.1964571 C32.6180523,10.1964571 43.5094269,12.2357485 43.5094269,12.2357485 L43.5094269,6.79763808 C43.5094269,6.79763808 39.8983743,5.15986815 34.3316571,4.07858285 C30.7008915,3.37333892 25.9949134,3.05893714 21.7547134,3.05893714 C17.3764449,3.05893714 12.8152558,3.34263218 9.17776973,4.07858285 Z M1.01975219,4.07858285 L1.01975219,5.43811046 C1.01975219,5.43811046 11.2728556,1.69940952 21.7547134,1.69940952 C32.2365712,1.69940952 42.8295921,5.43811046 42.8295921,5.43811046 L42.8295921,4.07858285 C42.8295921,4.07858285 32.1810263,8.43769499e-14 21.7547134,8.43769499e-14 C11.3284006,8.45430275e-14 1.01975219,4.07858285 1.01975219,4.07858285 Z M8.49793493,19.3732685 L8.49793493,24.811379 L9.17776973,24.811379 L9.17776973,19.3732685 L8.49793493,19.3732685 Z M12.2370263,19.0333866 L12.2370263,24.811379 L12.9168611,24.811379 L12.9168611,19.0333866 L12.2370263,19.0333866 Z M16.3160351,18.6935047 L16.3160351,24.811379 L16.9958699,24.811379 L16.9958699,18.6935047 L16.3160351,18.6935047 Z M22.0946308,18.3536228 L22.0946308,24.811379 L22.7744656,24.811379 L22.7744656,18.3536228 L22.0946308,18.3536228 Z M27.5333092,18.6935047 L27.5333092,24.811379 L28.213144,24.811379 L28.213144,18.6935047 L27.5333092,18.6935047 Z M31.2724006,19.0333866 L31.2724006,24.811379 L31.9522354,24.811379 L31.9522354,19.0333866 L31.2724006,19.0333866 Z M35.6913267,19.3732685 L35.6913267,24.811379 L36.3711615,24.811379 L36.3711615,19.3732685 L35.6913267,19.3732685 Z M8.15801754,9.17681141 L10.5374393,9.17681141 L10.5374393,5.9722106 L10.1975219,5.9722106 L10.1975219,5.38955591 L9.85760452,5.38955591 L9.85760452,5.09822856 L8.83785233,5.09822856 L8.83785233,5.38955591 L8.49793493,5.38955591 L8.49793493,5.9722106 L8.15801754,5.9722106 L8.15801754,9.17681141 Z M33.9917397,9.17681141 L36.3711615,9.17681141 L36.3711615,5.9722106 L36.0312441,5.9722106 L36.0312441,5.38955591 L35.6913267,5.38955591 L35.6913267,5.09822856 L34.6715745,5.09822856 L34.6715745,5.38955591 L34.3316571,5.38955591 L34.3316571,5.9722106 L33.9917397,5.9722106 L33.9917397,9.17681141 Z M20.7349612,5.09822856 L20.7349612,8.4970476 L23.7942178,8.4970476 L23.7942178,5.09822856 L23.4543004,5.09822856 L23.4543004,4.41846475 L22.7744656,4.41846475 L22.7744656,3.73870094 L21.7547134,3.73870094 L21.7547134,4.41846475 L21.0748786,4.41846475 L21.0748786,5.09822856 L20.7349612,5.09822856 Z" id="Combined-Shape"></path>
            </g>
            <g id="Side-Tower-1" transform="translate(116.076109, 37.740731) scale(-1, 1) translate(-116.076109, -37.740731) translate(94.145755, 7.137520)">
                <path d="M0,61.1787427 L43.8493443,61.1787427 L43.8493443,58.7995694 L43.5094269,58.1198056 L43.5094269,17.3339771 C43.5094269,17.3339771 32.6206645,14.9548038 21.9246721,14.9548038 C11.2286798,14.9548038 0.339917397,17.3339771 0.339917397,17.3339771 L0.679834795,57.4400418 L0,58.4596875 L0,61.1787427 Z M0.339917397,16.6542133 L0.339917397,12.9155123 C0.339917397,12.9155123 10.9056185,10.8762209 21.7547134,10.8762209 C32.6038083,10.8762209 43.5094269,12.9155123 43.5094269,12.9155123 L43.5094269,16.3143314 C43.5094269,16.3143314 32.7993797,14.1880832 21.7547134,14.27504 C10.7100472,14.3619968 0.339917397,16.6542133 0.339917397,16.6542133 Z M9.17776973,4.07858285 C3.89132795,5.1481568 0.339917397,6.79763808 0.339917397,6.79763808 L0.339917397,12.2357485 C0.339917397,12.2357485 10.8913745,10.1964571 21.7547134,10.1964571 C32.6180523,10.1964571 43.5094269,12.2357485 43.5094269,12.2357485 L43.5094269,6.79763808 C43.5094269,6.79763808 39.8983743,5.15986815 34.3316571,4.07858285 C30.7008915,3.37333892 25.9949134,3.05893714 21.7547134,3.05893714 C17.3764449,3.05893714 12.8152558,3.34263218 9.17776973,4.07858285 Z M1.01975219,4.07858285 L1.01975219,5.43811046 C1.01975219,5.43811046 11.2728556,1.69940952 21.7547134,1.69940952 C32.2365712,1.69940952 42.8295921,5.43811046 42.8295921,5.43811046 L42.8295921,4.07858285 C42.8295921,4.07858285 32.1810263,0 21.7547134,0 C11.3284006,1.66077625e-16 1.01975219,4.07858285 1.01975219,4.07858285 Z M8.49793493,19.3732685 L8.49793493,24.811379 L9.17776973,24.811379 L9.17776973,19.3732685 L8.49793493,19.3732685 Z M12.2370263,19.0333866 L12.2370263,24.811379 L12.9168611,24.811379 L12.9168611,19.0333866 L12.2370263,19.0333866 Z M16.3160351,18.6935047 L16.3160351,24.811379 L16.9958699,24.811379 L16.9958699,18.6935047 L16.3160351,18.6935047 Z M22.0946308,18.3536228 L22.0946308,24.811379 L22.7744656,24.811379 L22.7744656,18.3536228 L22.0946308,18.3536228 Z M27.5333092,18.6935047 L27.5333092,24.811379 L28.213144,24.811379 L28.213144,18.6935047 L27.5333092,18.6935047 Z M31.2724006,19.0333866 L31.2724006,24.811379 L31.9522354,24.811379 L31.9522354,19.0333866 L31.2724006,19.0333866 Z M35.6913267,19.3732685 L35.6913267,24.811379 L36.3711615,24.811379 L36.3711615,19.3732685 L35.6913267,19.3732685 Z M8.15801754,9.17681141 L10.5374393,9.17681141 L10.5374393,5.9722106 L10.1975219,5.9722106 L10.1975219,5.38955591 L9.85760452,5.38955591 L9.85760452,5.09822856 L8.83785233,5.09822856 L8.83785233,5.38955591 L8.49793493,5.38955591 L8.49793493,5.9722106 L8.15801754,5.9722106 L8.15801754,9.17681141 Z M33.9917397,9.17681141 L36.3711615,9.17681141 L36.3711615,5.9722106 L36.0312441,5.9722106 L36.0312441,5.38955591 L35.6913267,5.38955591 L35.6913267,5.09822856 L34.6715745,5.09822856 L34.6715745,5.38955591 L34.3316571,5.38955591 L34.3316571,5.9722106 L33.9917397,5.9722106 L33.9917397,9.17681141 Z M20.7349612,5.09822856 L20.7349612,8.4970476 L23.7942178,8.4970476 L23.7942178,5.09822856 L23.4543004,5.09822856 L23.4543004,4.41846475 L22.7744656,4.41846475 L22.7744656,3.73870094 L21.7547134,3.73870094 L21.7547134,4.41846475 L21.0748786,4.41846475 L21.0748786,5.09822856 L20.7349612,5.09822856 Z" id="Combined-Shape"></path>
            </g>
            <g id="Central-Tower" transform="translate(40.790088, 0.000000)">
                <path d="M17.6757047,66.2769713 L17.6757047,68.3162627 L38.7505833,68.3162627 L38.7505833,66.2769713 L17.6757047,66.2769713 Z M17.6757047,64.9174437 L17.6757047,65.5972075 L38.7505833,65.5972075 L38.7505833,64.9174437 L17.6757047,64.9174437 Z M44.8690965,25.4911428 L44.8690965,62.8781522 L45.2090138,63.557916 L45.2090138,68.3162627 L52.0073618,68.3162627 L52.0073618,65.5972075 L53.027114,64.5775617 L53.027114,24.4714971 L45.2090138,24.4714971 L44.8690965,25.4911428 Z M11.5571915,25.4911428 L11.5571915,62.8781522 L11.2172741,63.557916 L11.2172741,68.3162627 L4.41892617,68.3162627 L4.41892617,65.5972075 L3.39917397,64.5775617 L3.39917397,24.4714971 L11.2172741,24.4714971 L11.5571915,25.4911428 Z M12.2370263,24.4714971 L12.2370263,62.8781522 L11.8971089,63.557916 L11.8971089,68.3162627 L16.9958699,68.3162627 L16.9958699,63.557916 L16.6559525,62.8781522 L16.6559525,43.1650018 C16.6559525,43.1650018 18.1848128,38.8296773 21.0748786,36.0274818 C23.9649445,33.2252864 27.8732266,32.2887809 27.8732266,32.2887809 C27.8732266,32.2887809 33.5356666,34.0859311 36.0312441,36.3673637 C38.5268217,38.6487964 39.7703355,43.1650018 39.7703355,43.1650018 L39.7703355,62.8781522 L39.4304181,63.557916 L39.4304181,68.3162627 L44.5291791,68.3162627 L44.5291791,63.557916 L44.1892617,62.8781522 L44.1892617,43.1650018 L44.1892617,24.4714971 L12.2370263,24.4714971 Z M17.3357873,62.8781522 L17.6757047,63.8977979 L20.0551264,63.8977979 L20.0551264,49.2828761 L21.0748786,48.6031123 L21.0748786,42.8251199 C21.0748786,42.8251199 24.3655048,37.0471275 28.213144,37.0471275 C32.0607832,37.0471275 35.6913267,42.8251199 35.6913267,42.8251199 L35.6913267,48.6031123 L36.3711615,49.2828761 L36.3711615,63.8977979 L38.7505833,63.8977979 L39.0905007,62.8781522 L39.0905007,43.1650018 C39.0905007,43.1650018 38.0411899,39.4921273 35.3514093,37.0471275 C32.6616287,34.6021278 29.5728136,33.3084266 27.8732266,33.3084266 C26.1736396,33.3084266 23.4543004,34.6679542 21.0748786,37.0471275 C18.6954569,39.4263009 17.3357873,43.1650018 17.3357873,43.1650018 L17.3357873,62.8781522 Z M14.2765307,27.8703161 L14.2765307,30.5893714 L14.9563655,30.5893714 L14.9563655,27.8703161 L14.2765307,27.8703161 Z M20.0551264,27.8703161 L20.0551264,30.5893714 L20.7349612,30.5893714 L20.7349612,27.8703161 L20.0551264,27.8703161 Z M25.4938048,27.8703161 L25.4938048,30.5893714 L26.1736396,30.5893714 L26.1736396,27.8703161 L25.4938048,27.8703161 Z M30.2526484,27.8703161 L30.2526484,30.5893714 L30.9324832,30.5893714 L30.9324832,27.8703161 L30.2526484,27.8703161 Z M36.0312441,27.8703161 L36.0312441,30.5893714 L36.7110789,30.5893714 L36.7110789,27.8703161 L36.0312441,27.8703161 Z M41.4699225,27.8703161 L41.4699225,30.5893714 L42.1497573,30.5893714 L42.1497573,27.8703161 L41.4699225,27.8703161 Z M3.39917397,16.6542133 L3.39917397,21.072678 L11.5571915,21.072678 L11.5571915,17.673859 L11.2172741,16.6542133 L3.39917397,16.6542133 Z M53.027114,16.6542133 L53.027114,21.072678 L44.8690965,21.072678 L44.8690965,17.673859 L45.2090138,16.6542133 L53.027114,16.6542133 Z M3.39917397,21.7524419 L3.39917397,23.7917333 L11.5571915,23.7917333 L11.5571915,22.4322057 L10.8773567,21.7524419 L3.39917397,21.7524419 Z M53.027114,21.7524419 L53.027114,23.7917333 L44.8690965,23.7917333 L44.8690965,22.4322057 L45.5489312,21.7524419 L53.027114,21.7524419 Z M12.2370263,21.7524419 L12.2370263,23.7917333 L44.1892617,23.7917333 L44.1892617,21.7524419 L12.2370263,21.7524419 Z M12.2370263,16.6542133 L44.1892617,16.6542133 L43.8493443,17.3339771 L43.8493443,21.072678 L12.5769437,21.072678 L12.5769437,17.3339771 L12.2370263,16.6542133 Z M3.39917397,0 L8.49793493,0 L6.45843055,2.03929142 L0,2.03929142 L3.39917397,0 Z M52.6871966,0 L47.5884356,0 L49.62794,2.03929142 L56.0863706,2.03929142 L52.6871966,0 Z M9.51768713,0 L7.81810014,2.03929142 L48.9481052,2.37917333 L46.5686834,0 L9.51768713,0 Z M4.41892617,6.11787427 L4.41892617,15.9744495 L6.79834795,15.9744495 L6.79834795,6.11787427 L4.41892617,6.11787427 Z M49.62794,6.11787427 L49.62794,15.9744495 L52.0073618,15.9744495 L52.0073618,6.11787427 L49.62794,6.11787427 Z M3.73909137,5.43811046 L3.73909137,13.9351581 L3.05925658,13.2553943 L2.71933918,10.8762209 L2.71933918,6.11787427 L2.03950438,6.11787427 L2.03950438,3.73870094 L1.35966959,3.05893714 L11.2172741,3.05893714 L11.5571915,4.07858285 L11.5571915,5.43811046 L3.73909137,5.43811046 Z M52.6871966,5.43811046 L52.6871966,13.9351581 L53.3670314,13.2553943 L53.7069488,10.8762209 L53.7069488,6.11787427 L54.3867836,6.11787427 L54.3867836,3.73870094 L55.0666184,3.05893714 L45.2090138,3.05893714 L44.8690965,4.07858285 L44.8690965,5.43811046 L52.6871966,5.43811046 Z M12.2370263,3.05893714 L44.5291791,3.05893714 L43.8493443,3.73870094 L43.8493443,15.9744495 L12.9168611,15.9744495 L12.9168611,3.73870094 L12.2370263,3.05893714 Z M25.8337222,7.42884733 L25.8337222,13.2553943 L30.5925658,13.2553943 L30.5925658,7.42884733 L30.0638054,7.42884733 L30.0638054,6.26353794 L29.0062846,6.26353794 L29.0062846,5.09822856 L27.4200034,5.09822856 L27.4200034,6.26353794 L26.3624826,6.26353794 L26.3624826,7.42884733 L25.8337222,7.42884733 Z M31.9522354,7.91439291 L31.9522354,13.2553943 L36.7110789,13.2553943 L36.7110789,7.91439291 L36.1823185,7.91439291 L36.1823185,6.84619264 L35.1247977,6.84619264 L35.1247977,5.77799237 L33.5385165,5.77799237 L33.5385165,6.84619264 L32.4809957,6.84619264 L32.4809957,7.91439291 L31.9522354,7.91439291 Z M19.715209,7.91439291 L19.715209,13.2553943 L24.4740526,13.2553943 L24.4740526,7.91439291 L23.9452922,7.91439291 L23.9452922,6.84619264 L22.8877714,6.84619264 L22.8877714,5.77799237 L21.3014902,5.77799237 L21.3014902,6.84619264 L20.2439694,6.84619264 L20.2439694,7.91439291 L19.715209,7.91439291 Z M38.4106659,8.39993848 L38.4106659,13.2553943 L43.1695095,13.2553943 L43.1695095,8.39993848 L42.6407491,8.39993848 L42.6407491,7.42884733 L41.5832283,7.42884733 L41.5832283,6.45775617 L39.9969471,6.45775617 L39.9969471,7.42884733 L38.9394263,7.42884733 L38.9394263,8.39993848 L38.4106659,8.39993848 Z M13.2567785,8.39993848 L13.2567785,13.2553943 L18.0156221,13.2553943 L18.0156221,8.39993848 L17.4868617,8.39993848 L17.4868617,7.42884733 L16.4293409,7.42884733 L16.4293409,6.45775617 L14.8430597,6.45775617 L14.8430597,7.42884733 L13.7855389,7.42884733 L13.7855389,8.39993848 L13.2567785,8.39993848 Z M7.47818274,6.11787427 L7.47818274,15.9744495 L9.17776973,15.9744495 L9.17776973,10.1964571 L9.51768713,10.1964571 L9.51768713,8.4970476 L10.5374393,8.4970476 L10.5374393,10.1964571 L10.8773567,10.1964571 L10.8773567,15.9744495 L11.5571915,15.9744495 L11.5571915,6.11787427 L7.47818274,6.11787427 Z M48.9481052,6.11787427 L48.9481052,15.9744495 L47.2485182,15.9744495 L47.2485182,10.1964571 L46.9086008,10.1964571 L46.9086008,8.4970476 L45.8888486,8.4970476 L45.8888486,10.1964571 L45.5489312,10.1964571 L45.5489312,15.9744495 L44.8690965,15.9744495 L44.8690965,6.11787427 L48.9481052,6.11787427 Z" id="Combined-Shape"></path>
            </g>
        </g>
    </g>
</svg>