<?xml version="1.0" encoding="UTF-8" standalone="no"?>
<svg width="258px" height="161px" viewBox="0 0 258 161" version="1.1" xmlns="http://www.w3.org/2000/svg" xmlns:xlink="http://www.w3.org/1999/xlink">
    <!-- Generator: Sketch 3.6.1 (26313) - http://www.bohemiancoding.com/sketch -->
    <title>Graph</title>
    <desc>Created with Sketch.</desc>
    <defs></defs>
    <g id="Website" stroke="none" stroke-width="1" fill="none" fill-rule="evenodd">
        <g id="About" transform="translate(-763.000000, -1381.000000)">
            <g id="Trivia" transform="translate(116.000000, 1261.000000)">
                <g id="Graph" transform="translate(647.000000, 120.000000)">
                    <path d="M176.25,89.25 L243.75,14.25" id="Line" stroke="#979797" stroke-linecap="square"></path>
                    <path d="M75.75,102.75 L161.25,95.75" id="Line" stroke="#979797" stroke-linecap="square"></path>
                    <path d="M14.75,147.25 L61.25,109.25" id="Line" stroke="#979797" stroke-linecap="square"></path>
                    <g id="Node1" transform="translate(0.000000, 143.000000)" fill="#CC3D4A">
                        <path d="M8.75,17.5 C13.5824916,17.5 17.5,13.5824916 17.5,8.75 C17.5,3.91750844 13.5824916,0 8.75,0 C3.91750844,0 0,3.91750844 0,8.75 C0,13.5824916 3.91750844,17.5 8.75,17.5 Z M8.75,15.5555556 C12.5086045,15.5555556 15.5555556,12.5086045 15.5555556,8.75 C15.5555556,4.99139545 12.5086045,1.94444444 8.75,1.94444444 C4.99139545,1.94444444 1.94444444,4.99139545 1.94444444,8.75 C1.94444444,12.5086045 4.99139545,15.5555556 8.75,15.5555556 Z" id="Combined-Shape"></path>
                        <path d="M6,7.18730954 L6,7.47014783 C6,7.97946422 6.17847812,8.41305739 6.53612479,8.77161889 C6.89446191,9.1301804 7.32667584,9.30928826 7.83587357,9.30928826 L8.25980225,9.30928826 L9.38970338,9.30928826 L9.81294163,9.30928826 C10.0097163,9.30928826 10.1761118,9.37844188 10.3138541,9.51536604 C10.4512512,9.65401904 10.5202949,9.82067926 10.5202949,10.0167298 L10.5202949,10.441333 L10.5089027,10.441333 C10.4826661,10.5772198 10.4184554,10.6958183 10.3166159,10.7978199 C10.1771475,10.9371644 10.0097163,11.0077011 9.81294163,11.0077011 L7.83587357,11.0077011 C7.63978929,11.0077011 7.47304861,10.9388932 7.33634197,10.800586 C7.19825445,10.6626245 7.12990113,10.4959643 7.12990113,10.2995681 C7.12990113,10.1450097 7.07466612,10.0125805 6.96316045,9.90055168 C6.85234521,9.78921436 6.71978119,9.73319993 6.56512317,9.73319993 C6.41081037,9.73319993 6.27824635,9.7899059 6.16743112,9.90055168 C6.05661588,10.0122348 6.00103566,10.1450097 6.00103566,10.2995681 C6.00103566,10.8092302 6.17951378,11.2431691 6.53716045,11.6013849 C6.89549756,11.9599464 7.3277115,12.1387085 7.83690923,12.1387085 L8.26083791,12.1387085 L8.26083791,12.4218925 C8.26083791,12.5764509 8.31538248,12.7092258 8.42723337,12.8209089 C8.53908426,12.932592 8.67164828,12.9879149 8.82561586,12.9879149 C8.98061911,12.9879149 9.11318312,12.9319005 9.22365314,12.8209089 C9.33550403,12.7095716 9.39073904,12.5764509 9.39073904,12.4218925 L9.39073904,12.1387085 L9.39073904,12.1380169 L9.81225119,12.1380169 C10.3214489,12.1380169 10.7540081,11.9592548 11.1123452,11.6006933 C11.4361604,11.2760171 11.6132577,10.8897942 11.6432917,10.4409872 L11.6498509,10.4409872 L11.6498509,10.016384 C11.6498509,9.50672184 11.4699919,9.0738202 11.1130356,8.71491293 C10.7550437,8.35669719 10.3221394,8.1779351 9.81294163,8.1779351 L9.38970338,8.1779351 L8.25980225,8.1779351 L7.83587357,8.1779351 C7.63978929,8.1779351 7.47304861,8.10912725 7.33634197,7.97116578 C7.19825445,7.83389585 7.12990113,7.66619833 7.12990113,7.4704936 L7.12990113,7.18765531 C7.12990113,6.99195057 7.19790923,6.82425305 7.33634197,6.68663735 C7.47304861,6.54902166 7.63978929,6.48055958 7.83587357,6.48055958 L9.81294163,6.48055958 C10.0097163,6.48055958 10.1761118,6.54902166 10.3131637,6.68663735 C10.4512512,6.82425305 10.5202949,6.9916048 10.5202949,7.18765531 C10.5202949,7.34221364 10.5748395,7.47498858 10.6870356,7.58632591 C10.7975056,7.69766323 10.9307601,7.75333189 11.0843825,7.75333189 C11.2397309,7.75333189 11.3722949,7.69731746 11.4834554,7.58632591 C11.5949611,7.47498858 11.6508865,7.34221364 11.6508865,7.18765531 C11.6508865,6.67799315 11.4710275,6.24474575 11.1137261,5.88618424 C10.7557342,5.52727697 10.3228298,5.34851487 9.81363207,5.34851487 L9.39039382,5.34851487 L9.39039382,5.06533082 C9.39039382,4.91111825 9.33515881,4.77799754 9.22330792,4.66666022 C9.1128379,4.55532289 8.98027389,4.5 8.82527065,4.5 C8.67130306,4.5 8.53839382,4.55566866 8.42688815,4.66666022 C8.31538248,4.77799754 8.26049269,4.91111825 8.26049269,5.06533082 L8.26049269,5.34851487 L7.83656401,5.34851487 C7.3277115,5.34851487 6.89515234,5.52762274 6.53681523,5.88618424 C6.1781329,6.24439998 6,6.67764738 6,7.18730954 L6,7.18730954 Z" id="Shape"></path>
                    </g>
                    <g id="Node2" transform="translate(59.000000, 94.500000)" fill="#CC3D4A">
                        <path d="M8.75,17.5 C13.5824916,17.5 17.5,13.5824916 17.5,8.75 C17.5,3.91750844 13.5824916,0 8.75,0 C3.91750844,0 0,3.91750844 0,8.75 C0,13.5824916 3.91750844,17.5 8.75,17.5 Z M8.75,15.5555556 C12.5086045,15.5555556 15.5555556,12.5086045 15.5555556,8.75 C15.5555556,4.99139545 12.5086045,1.94444444 8.75,1.94444444 C4.99139545,1.94444444 1.94444444,4.99139545 1.94444444,8.75 C1.94444444,12.5086045 4.99139545,15.5555556 8.75,15.5555556 Z" id="Combined-Shape"></path>
                        <path d="M6,7.18730954 L6,7.47014783 C6,7.97946422 6.17847812,8.41305739 6.53612479,8.77161889 C6.89446191,9.1301804 7.32667584,9.30928826 7.83587357,9.30928826 L8.25980225,9.30928826 L9.38970338,9.30928826 L9.81294163,9.30928826 C10.0097163,9.30928826 10.1761118,9.37844188 10.3138541,9.51536604 C10.4512512,9.65401904 10.5202949,9.82067926 10.5202949,10.0167298 L10.5202949,10.441333 L10.5089027,10.441333 C10.4826661,10.5772198 10.4184554,10.6958183 10.3166159,10.7978199 C10.1771475,10.9371644 10.0097163,11.0077011 9.81294163,11.0077011 L7.83587357,11.0077011 C7.63978929,11.0077011 7.47304861,10.9388932 7.33634197,10.800586 C7.19825445,10.6626245 7.12990113,10.4959643 7.12990113,10.2995681 C7.12990113,10.1450097 7.07466612,10.0125805 6.96316045,9.90055168 C6.85234521,9.78921436 6.71978119,9.73319993 6.56512317,9.73319993 C6.41081037,9.73319993 6.27824635,9.7899059 6.16743112,9.90055168 C6.05661588,10.0122348 6.00103566,10.1450097 6.00103566,10.2995681 C6.00103566,10.8092302 6.17951378,11.2431691 6.53716045,11.6013849 C6.89549756,11.9599464 7.3277115,12.1387085 7.83690923,12.1387085 L8.26083791,12.1387085 L8.26083791,12.4218925 C8.26083791,12.5764509 8.31538248,12.7092258 8.42723337,12.8209089 C8.53908426,12.932592 8.67164828,12.9879149 8.82561586,12.9879149 C8.98061911,12.9879149 9.11318312,12.9319005 9.22365314,12.8209089 C9.33550403,12.7095716 9.39073904,12.5764509 9.39073904,12.4218925 L9.39073904,12.1387085 L9.39073904,12.1380169 L9.81225119,12.1380169 C10.3214489,12.1380169 10.7540081,11.9592548 11.1123452,11.6006933 C11.4361604,11.2760171 11.6132577,10.8897942 11.6432917,10.4409872 L11.6498509,10.4409872 L11.6498509,10.016384 C11.6498509,9.50672184 11.4699919,9.0738202 11.1130356,8.71491293 C10.7550437,8.35669719 10.3221394,8.1779351 9.81294163,8.1779351 L9.38970338,8.1779351 L8.25980225,8.1779351 L7.83587357,8.1779351 C7.63978929,8.1779351 7.47304861,8.10912725 7.33634197,7.97116578 C7.19825445,7.83389585 7.12990113,7.66619833 7.12990113,7.4704936 L7.12990113,7.18765531 C7.12990113,6.99195057 7.19790923,6.82425305 7.33634197,6.68663735 C7.47304861,6.54902166 7.63978929,6.48055958 7.83587357,6.48055958 L9.81294163,6.48055958 C10.0097163,6.48055958 10.1761118,6.54902166 10.3131637,6.68663735 C10.4512512,6.82425305 10.5202949,6.9916048 10.5202949,7.18765531 C10.5202949,7.34221364 10.5748395,7.47498858 10.6870356,7.58632591 C10.7975056,7.69766323 10.9307601,7.75333189 11.0843825,7.75333189 C11.2397309,7.75333189 11.3722949,7.69731746 11.4834554,7.58632591 C11.5949611,7.47498858 11.6508865,7.34221364 11.6508865,7.18765531 C11.6508865,6.67799315 11.4710275,6.24474575 11.1137261,5.88618424 C10.7557342,5.52727697 10.3228298,5.34851487 9.81363207,5.34851487 L9.39039382,5.34851487 L9.39039382,5.06533082 C9.39039382,4.91111825 9.33515881,4.77799754 9.22330792,4.66666022 C9.1128379,4.55532289 8.98027389,4.5 8.82527065,4.5 C8.67130306,4.5 8.53839382,4.55566866 8.42688815,4.66666022 C8.31538248,4.77799754 8.26049269,4.91111825 8.26049269,5.06533082 L8.26049269,5.34851487 L7.83656401,5.34851487 C7.3277115,5.34851487 6.89515234,5.52762274 6.53681523,5.88618424 C6.1781329,6.24439998 6,6.67764738 6,7.18730954 L6,7.18730954 Z" id="Shape"></path>
                    </g>
                    <g id="Node3" transform="translate(160.500000, 86.000000)" fill="#CC3D4A">
                        <path d="M8.75,17.5 C13.5824916,17.5 17.5,13.5824916 17.5,8.75 C17.5,3.91750844 13.5824916,0 8.75,0 C3.91750844,0 0,3.91750844 0,8.75 C0,13.5824916 3.91750844,17.5 8.75,17.5 Z M8.75,15.5555556 C12.5086045,15.5555556 15.5555556,12.5086045 15.5555556,8.75 C15.5555556,4.99139545 12.5086045,1.94444444 8.75,1.94444444 C4.99139545,1.94444444 1.94444444,4.99139545 1.94444444,8.75 C1.94444444,12.5086045 4.99139545,15.5555556 8.75,15.5555556 Z" id="Combined-Shape"></path>
                        <path d="M6,7.18730954 L6,7.47014783 C6,7.97946422 6.17847812,8.41305739 6.53612479,8.77161889 C6.89446191,9.1301804 7.32667584,9.30928826 7.83587357,9.30928826 L8.25980225,9.30928826 L9.38970338,9.30928826 L9.81294163,9.30928826 C10.0097163,9.30928826 10.1761118,9.37844188 10.3138541,9.51536604 C10.4512512,9.65401904 10.5202949,9.82067926 10.5202949,10.0167298 L10.5202949,10.441333 L10.5089027,10.441333 C10.4826661,10.5772198 10.4184554,10.6958183 10.3166159,10.7978199 C10.1771475,10.9371644 10.0097163,11.0077011 9.81294163,11.0077011 L7.83587357,11.0077011 C7.63978929,11.0077011 7.47304861,10.9388932 7.33634197,10.800586 C7.19825445,10.6626245 7.12990113,10.4959643 7.12990113,10.2995681 C7.12990113,10.1450097 7.07466612,10.0125805 6.96316045,9.90055168 C6.85234521,9.78921436 6.71978119,9.73319993 6.56512317,9.73319993 C6.41081037,9.73319993 6.27824635,9.7899059 6.16743112,9.90055168 C6.05661588,10.0122348 6.00103566,10.1450097 6.00103566,10.2995681 C6.00103566,10.8092302 6.17951378,11.2431691 6.53716045,11.6013849 C6.89549756,11.9599464 7.3277115,12.1387085 7.83690923,12.1387085 L8.26083791,12.1387085 L8.26083791,12.4218925 C8.26083791,12.5764509 8.31538248,12.7092258 8.42723337,12.8209089 C8.53908426,12.932592 8.67164828,12.9879149 8.82561586,12.9879149 C8.98061911,12.9879149 9.11318312,12.9319005 9.22365314,12.8209089 C9.33550403,12.7095716 9.39073904,12.5764509 9.39073904,12.4218925 L9.39073904,12.1387085 L9.39073904,12.1380169 L9.81225119,12.1380169 C10.3214489,12.1380169 10.7540081,11.9592548 11.1123452,11.6006933 C11.4361604,11.2760171 11.6132577,10.8897942 11.6432917,10.4409872 L11.6498509,10.4409872 L11.6498509,10.016384 C11.6498509,9.50672184 11.4699919,9.0738202 11.1130356,8.71491293 C10.7550437,8.35669719 10.3221394,8.1779351 9.81294163,8.1779351 L9.38970338,8.1779351 L8.25980225,8.1779351 L7.83587357,8.1779351 C7.63978929,8.1779351 7.47304861,8.10912725 7.33634197,7.97116578 C7.19825445,7.83389585 7.12990113,7.66619833 7.12990113,7.4704936 L7.12990113,7.18765531 C7.12990113,6.99195057 7.19790923,6.82425305 7.33634197,6.68663735 C7.47304861,6.54902166 7.63978929,6.48055958 7.83587357,6.48055958 L9.81294163,6.48055958 C10.0097163,6.48055958 10.1761118,6.54902166 10.3131637,6.68663735 C10.4512512,6.82425305 10.5202949,6.9916048 10.5202949,7.18765531 C10.5202949,7.34221364 10.5748395,7.47498858 10.6870356,7.58632591 C10.7975056,7.69766323 10.9307601,7.75333189 11.0843825,7.75333189 C11.2397309,7.75333189 11.3722949,7.69731746 11.4834554,7.58632591 C11.5949611,7.47498858 11.6508865,7.34221364 11.6508865,7.18765531 C11.6508865,6.67799315 11.4710275,6.24474575 11.1137261,5.88618424 C10.7557342,5.52727697 10.3228298,5.34851487 9.81363207,5.34851487 L9.39039382,5.34851487 L9.39039382,5.06533082 C9.39039382,4.91111825 9.33515881,4.77799754 9.22330792,4.66666022 C9.1128379,4.55532289 8.98027389,4.5 8.82527065,4.5 C8.67130306,4.5 8.53839382,4.55566866 8.42688815,4.66666022 C8.31538248,4.77799754 8.26049269,4.91111825 8.26049269,5.06533082 L8.26049269,5.34851487 L7.83656401,5.34851487 C7.3277115,5.34851487 6.89515234,5.52762274 6.53681523,5.88618424 C6.1781329,6.24439998 6,6.67764738 6,7.18730954 L6,7.18730954 Z" id="Shape"></path>
                    </g>
                    <g id="Node4" transform="translate(240.500000, 0.000000)" fill="#CC3D4A">
                        <path d="M8.75,17.5 C13.5824916,17.5 17.5,13.5824916 17.5,8.75 C17.5,3.91750844 13.5824916,0 8.75,0 C3.91750844,0 0,3.91750844 0,8.75 C0,13.5824916 3.91750844,17.5 8.75,17.5 Z M8.75,15.5555556 C12.5086045,15.5555556 15.5555556,12.5086045 15.5555556,8.75 C15.5555556,4.99139545 12.5086045,1.94444444 8.75,1.94444444 C4.99139545,1.94444444 1.94444444,4.99139545 1.94444444,8.75 C1.94444444,12.5086045 4.99139545,15.5555556 8.75,15.5555556 Z" id="Combined-Shape"></path>
                        <path d="M6,7.18730954 L6,7.47014783 C6,7.97946422 6.17847812,8.41305739 6.53612479,8.77161889 C6.89446191,9.1301804 7.32667584,9.30928826 7.83587357,9.30928826 L8.25980225,9.30928826 L9.38970338,9.30928826 L9.81294163,9.30928826 C10.0097163,9.30928826 10.1761118,9.37844188 10.3138541,9.51536604 C10.4512512,9.65401904 10.5202949,9.82067926 10.5202949,10.0167298 L10.5202949,10.441333 L10.5089027,10.441333 C10.4826661,10.5772198 10.4184554,10.6958183 10.3166159,10.7978199 C10.1771475,10.9371644 10.0097163,11.0077011 9.81294163,11.0077011 L7.83587357,11.0077011 C7.63978929,11.0077011 7.47304861,10.9388932 7.33634197,10.800586 C7.19825445,10.6626245 7.12990113,10.4959643 7.12990113,10.2995681 C7.12990113,10.1450097 7.07466612,10.0125805 6.96316045,9.90055168 C6.85234521,9.78921436 6.71978119,9.73319993 6.56512317,9.73319993 C6.41081037,9.73319993 6.27824635,9.7899059 6.16743112,9.90055168 C6.05661588,10.0122348 6.00103566,10.1450097 6.00103566,10.2995681 C6.00103566,10.8092302 6.17951378,11.2431691 6.53716045,11.6013849 C6.89549756,11.9599464 7.3277115,12.1387085 7.83690923,12.1387085 L8.26083791,12.1387085 L8.26083791,12.4218925 C8.26083791,12.5764509 8.31538248,12.7092258 8.42723337,12.8209089 C8.53908426,12.932592 8.67164828,12.9879149 8.82561586,12.9879149 C8.98061911,12.9879149 9.11318312,12.9319005 9.22365314,12.8209089 C9.33550403,12.7095716 9.39073904,12.5764509 9.39073904,12.4218925 L9.39073904,12.1387085 L9.39073904,12.1380169 L9.81225119,12.1380169 C10.3214489,12.1380169 10.7540081,11.9592548 11.1123452,11.6006933 C11.4361604,11.2760171 11.6132577,10.8897942 11.6432917,10.4409872 L11.6498509,10.4409872 L11.6498509,10.016384 C11.6498509,9.50672184 11.4699919,9.0738202 11.1130356,8.71491293 C10.7550437,8.35669719 10.3221394,8.1779351 9.81294163,8.1779351 L9.38970338,8.1779351 L8.25980225,8.1779351 L7.83587357,8.1779351 C7.63978929,8.1779351 7.47304861,8.10912725 7.33634197,7.97116578 C7.19825445,7.83389585 7.12990113,7.66619833 7.12990113,7.4704936 L7.12990113,7.18765531 C7.12990113,6.99195057 7.19790923,6.82425305 7.33634197,6.68663735 C7.47304861,6.54902166 7.63978929,6.48055958 7.83587357,6.48055958 L9.81294163,6.48055958 C10.0097163,6.48055958 10.1761118,6.54902166 10.3131637,6.68663735 C10.4512512,6.82425305 10.5202949,6.9916048 10.5202949,7.18765531 C10.5202949,7.34221364 10.5748395,7.47498858 10.6870356,7.58632591 C10.7975056,7.69766323 10.9307601,7.75333189 11.0843825,7.75333189 C11.2397309,7.75333189 11.3722949,7.69731746 11.4834554,7.58632591 C11.5949611,7.47498858 11.6508865,7.34221364 11.6508865,7.18765531 C11.6508865,6.67799315 11.4710275,6.24474575 11.1137261,5.88618424 C10.7557342,5.52727697 10.3228298,5.34851487 9.81363207,5.34851487 L9.39039382,5.34851487 L9.39039382,5.06533082 C9.39039382,4.91111825 9.33515881,4.77799754 9.22330792,4.66666022 C9.1128379,4.55532289 8.98027389,4.5 8.82527065,4.5 C8.67130306,4.5 8.53839382,4.55566866 8.42688815,4.66666022 C8.31538248,4.77799754 8.26049269,4.91111825 8.26049269,5.06533082 L8.26049269,5.34851487 L7.83656401,5.34851487 C7.3277115,5.34851487 6.89515234,5.52762274 6.53681523,5.88618424 C6.1781329,6.24439998 6,6.67764738 6,7.18730954 L6,7.18730954 Z" id="Shape"></path>
                    </g>
                </g>
            </g>
        </g>
    </g>
</svg>