<?xml version="1.0" encoding="UTF-8" standalone="no"?>
<svg width="90px" height="90px" viewBox="0 0 90 90" version="1.1" xmlns="http://www.w3.org/2000/svg" xmlns:xlink="http://www.w3.org/1999/xlink">
    <!-- Generator: Sketch 3.6.1 (26313) - http://www.bohemiancoding.com/sketch -->
    <title>Process-Deployment</title>
    <desc>Created with Sketch.</desc>
    <defs></defs>
    <g id="Content" stroke="none" stroke-width="1" fill="none" fill-rule="evenodd">
        <g id="Process-Deployment" transform="translate(0.000000, -1.000000)" fill="#CC3E4A">
            <g id="Group">
                <path d="M59.452,1 C58.73474,1.000016 58.1727,1.042978 57.7423,1.12903 C57.31194,1.215117 56.94677,1.34757 56.6455,1.54838 C56.251,1.79943 55.96817,2.16463 55.80679,2.61288 C55.6454,3.06118 55.58098,3.83808 55.58098,4.93548 L55.58098,7.54838 C55.580975,8.64578 55.36256,9.42988 54.96808,9.87098 C54.57359,10.3121 53.89698,10.51615 52.93578,10.51614 C52.88557,10.51615 52.81756,10.52334 52.70997,10.51614 C52.60238,10.50894 52.50929,10.516146 52.45191,10.51614 L52.45191,11.87094 C52.50929,11.870951 52.60238,11.87814 52.70997,11.87094 C52.81756,11.86374 52.88557,11.83869 52.93578,11.83868 C53.8969,11.838685 54.57358,12.07858 54.96808,12.5161 C55.36257,12.95363 55.58098,13.7162 55.58098,14.8064 L55.58098,17.4193 C55.580975,18.488 55.64539,19.2506 55.80679,19.7096 C55.96817,20.16864 56.251,20.5159 56.6455,20.7741 C56.94674,20.97493 57.30833,21.13964 57.7423,21.22571 C58.17623,21.31177 58.74189,21.35474 59.452,21.35474 L59.8391,21.35474 L59.8391,19.99994 L59.41974,19.99994 C58.51599,19.999937 57.89304,19.81733 57.58104,19.48381 C57.26903,19.15029 57.12942,18.45571 57.12943,17.38701 L57.12943,14.80641 C57.129424,13.61581 56.95756,12.75651 56.64556,12.25801 C56.33355,11.75952 55.79655,11.40868 55.00036,11.19351 C55.79651,10.97117 56.33356,10.59523 56.64556,10.09671 C56.95756,9.59823 57.12942,8.77121 57.12943,7.58061 L57.12943,4.96771 C57.129424,3.89181 57.27262,3.17581 57.58104,2.83871 C57.88945,2.50161 58.48735,2.35485 59.35524,2.35484 C59.40544,2.3548555 59.47345,2.34768 59.58105,2.35484 C59.68863,2.36203 59.78172,2.3548546 59.83911,2.35484 L59.83911,0.99964 L59.45211,0.99964 L59.452,1 Z M82.258,1 L82.258,2.3548 L82.67736,2.3548 C83.57392,2.3548146 84.16826,2.53025 84.48386,2.87093 C84.79945,3.21164 84.96773,3.89903 84.96773,4.96773 L84.96773,7.58063 C84.967725,8.77123 85.13959,9.59823 85.4516,10.09673 C85.7636,10.59523 86.3006,10.97116 87.0968,11.19353 C86.30064,11.40871 85.7636,11.75956 85.4516,12.25803 C85.13959,12.75653 84.96772,13.61573 84.96773,14.80643 L84.96773,17.38703 C84.967725,18.47013 84.82812,19.17533 84.51612,19.51603 C84.20411,19.85672 83.60263,20.03215 82.74192,20.03216 C82.69171,20.03216 82.6237,20.00703 82.51611,19.9999 C82.40852,19.9927 82.31543,19.999897 82.25805,19.9999 L82.25805,21.3547 L82.70966,21.3547 C83.44126,21.354695 83.99976,21.30815 84.41936,21.22567 C84.83895,21.14318 85.20414,20.9928 85.48386,20.80631 C85.87117,20.54809 86.13251,20.19725 86.29031,19.74181 C86.4481,19.28635 86.54837,18.51661 86.54837,17.41921 L86.54837,14.80631 C86.548364,13.71611 86.73093,12.96071 87.12901,12.51601 C87.52708,12.07132 88.22521,11.8386 89.19351,11.83859 C89.24371,11.83859 89.31172,11.86372 89.41932,11.87085 C89.5269,11.87805 89.61999,11.870855 89.67738,11.87085 L89.67738,10.51605 C89.61999,10.51605 89.5269,10.50895 89.41932,10.51605 C89.31172,10.52325 89.24371,10.516056 89.19351,10.51605 C88.22521,10.516056 87.52711,10.28333 87.12901,9.83863 C86.73093,9.39394 86.54836,8.63853 86.54837,7.54833 L86.54837,4.93543 C86.54737,3.84463 86.44737,3.06413 86.28937,2.61223 C86.13237,2.16033 85.87037,1.79873 85.48337,1.54773 C85.18237,1.35403 84.79137,1.21803 84.35437,1.12833 C83.91637,1.03873 83.36137,0.99933 82.64437,0.99933 L82.25737,0.99933 L82.258,1 Z M64.742,14.806 C64.41923,14.806002 64.16507,14.93132 63.93555,15.16084 C63.70603,15.39036 63.58071,15.67679 63.58071,15.99955 C63.580708,16.30797 63.69885,16.56931 63.93555,16.806 C64.17224,17.04269 64.43358,17.16084 64.742,17.16084 C65.06476,17.16084 65.3476,17.03911 65.58071,16.806 C65.81371,16.573 65.93471,16.316 65.93471,16 C65.934706,15.67006 65.80939,15.38723 65.57987,15.16129 C65.35034,14.93536 65.07109,14.80645 64.74116,14.80645 L64.742,14.806 Z M71.0323,14.806 C70.70953,14.806002 70.45537,14.93132 70.22585,15.16084 C69.99633,15.39036 69.87101,15.67679 69.87101,15.99955 C69.871008,16.30797 69.98915,16.56931 70.22585,16.806 C70.46254,17.04269 70.72388,17.16084 71.0323,17.16084 C71.35506,17.16084 71.6379,17.03911 71.87101,16.806 C72.10411,16.57289 72.22584,16.31514 72.22585,15.99955 C72.225845,15.66961 72.10053,15.38678 71.87101,15.16084 C71.64148,14.93491 71.36223,14.806 71.0323,14.806 L71.0323,14.806 Z M77.3226,14.806 C76.99983,14.806002 76.71341,14.93132 76.48389,15.16084 C76.25437,15.39036 76.16131,15.67679 76.16131,15.99955 C76.161308,16.30797 76.27945,16.56931 76.51615,16.806 C76.75284,17.04269 77.01418,17.16084 77.3226,17.16084 C77.64536,17.16084 77.9282,17.03911 78.16131,16.806 C78.39441,16.57289 78.51615,16.31514 78.51615,15.99955 C78.516146,15.66961 78.39083,15.38678 78.16131,15.16084 C77.93179,14.93491 77.65253,14.806 77.3226,14.806 L77.3226,14.806 Z M72.742,23.935 C68.836,35.236 59.357,40.693 52.614,42.129 L52.58174,42.129 L51.16234,42.45158 L52.32364,40.61288 C50.11404,41.82438 47.90414,43.06568 45.74304,44.25808 C48.24044,44.39483 49.90114,44.47414 53.22694,44.64518 L51.38824,43.48388 L52.80764,43.1613 C52.81664,43.1593 52.8309,43.1633 52.8399,43.1613 C59.9084,41.6471 69.6749,35.9661 73.7109,24.2903 L72.74316,23.93546 L72.742,23.935 Z M23.258,27.9995 L23.06445,28.09627 L0.58045,41.06427 L0.32239,41.22556 L0.51594,41.48362 L9.35464,51.67762 L9.35464,64.64562 L9.35464,77.61362 L9.35464,77.83943 L9.54819,77.90395 L32.00119,90.86995 L32.16219,90.99895 L32.35574,90.86992 L54.80774,77.90192 L55.00129,77.8374 L55.00129,77.61159 L55.00129,59.67659 L54.84,59.67659 L68.163,51.96689 L69.03397,51.45076 L68.00167,51.45076 L54.80767,51.4185 L54.80767,51.35398 L32.35567,38.38598 L32.16212,38.2892 L23.38792,28.1602 L23.25889,27.99891 L23.258,27.9995 Z M23.12897,28.70918 L31.70957,38.58018 L9.70957,51.25718 L1.16117,41.38618 L23.12917,28.70918 L23.12897,28.70918 Z M32.09667,39.19318 L32.09667,64.16118 L10.45267,51.67618 L32.09767,39.19318 L32.09667,39.19318 Z M32.25796,39.19318 L53.90296,51.67718 L32.25796,64.16118 L32.25796,39.19318 L32.25796,39.19318 Z M54.80596,51.96718 L66.99996,51.99944 L45.93496,64.19344 L33.70896,64.19344 L54.80596,51.99944 L54.80596,51.96718 L54.80596,51.96718 Z M10.09596,52.32202 L20.57996,58.38652 L20.57996,70.48352 L10.09596,64.45122 L10.09596,52.32222 L10.09596,52.32202 Z M21.32196,58.80592 L31.54796,64.70912 L31.5157,64.74138 L31.61247,64.74138 L31.80602,64.87041 L31.80602,76.96741 L21.32202,70.93511 L21.32202,58.80611 L21.32196,58.80592 Z M54.25696,59.99942 L54.25696,64.45102 L43.77296,70.48332 L43.77296,64.74142 L45.99876,64.74142 L46.09553,64.74142 L46.16005,64.70916 L54.25685,59.99946 L54.25696,59.99942 Z M32.74096,64.74132 L43.03096,64.74132 L43.03096,70.93482 L32.54696,76.96712 L32.54696,64.87012 L32.74051,64.74109 L32.74096,64.74132 Z M10.09596,65.28971 L20.57996,71.32201 L20.57996,83.48301 L10.09596,77.41851 L10.09596,65.28951 L10.09596,65.28971 Z M54.25696,65.28971 L54.25696,77.41871 L43.77296,83.48321 L43.77296,71.32221 L54.25696,65.28991 L54.25696,65.28971 Z M21.32196,71.77361 L31.80596,77.80591 L31.80596,89.93491 L21.32196,83.90261 L21.32196,71.77361 L21.32196,71.77361 Z M43.03196,71.77361 L43.03196,83.90261 L32.54796,89.93491 L32.54796,77.80591 L43.03196,71.77361 L43.03196,71.77361 Z" id="Shape"></path>
            </g>
        </g>
    </g>
</svg>