<?xml version="1.0" encoding="UTF-8" standalone="no"?>
<svg width="90px" height="90px" viewBox="0 0 90 90" version="1.1" xmlns="http://www.w3.org/2000/svg" xmlns:xlink="http://www.w3.org/1999/xlink">
    <!-- Generator: Sketch 3.6.1 (26313) - http://www.bohemiancoding.com/sketch -->
    <title>Process-Design</title>
    <desc>Created with Sketch.</desc>
    <defs></defs>
    <g id="Content" stroke="none" stroke-width="1" fill="none" fill-rule="evenodd">
        <g id="Process-Design" fill="#CC3E4A">
            <g id="Group">
                <g id="Shape">
                    <path d="M88.969,13.617 L76.371,1.049 C74.993,-0.326 72.74,-0.322 71.367,1.059 L47.67,24.756 L24.445,1.531 C22.454,-0.46 19.227,-0.46 17.236,1.531 L1.531,17.235 C-0.46,19.226 -0.46,22.454 1.531,24.445 L4.034,26.948 L15.574,15.408 C16.017,14.965 16.737,14.965 17.179,15.408 C17.622,15.851 17.623,16.571 17.18,17.014 L5.64,28.554 L10.413,33.328 L17.936,25.805 C18.379,25.362 19.099,25.362 19.541,25.805 C19.984,26.248 19.985,26.968 19.542,27.411 L12.019,34.934 L16.792,39.708 L24.315,32.185 C24.758,31.742 25.478,31.742 25.92,32.185 C26.363,32.628 26.364,33.348 25.921,33.791 L18.398,41.314 L23.171,46.087 L34.711,34.547 C35.154,34.104 35.874,34.104 36.316,34.547 C36.719,34.95 36.737,35.575 36.405,36.019 L2.511,69.914 C1.13,71.287 0,74.004 0,75.951 L0,86.439 L0,89.98 L3.541,89.98 L4.151,89.98 L14.075,89.98 C16.022,89.98 18.743,88.855 20.12,87.477 L88.959,18.609 C90.343,17.238 90.348,14.993 88.969,13.617 L88.969,13.617 Z"></path>
                    <path d="M66.83,43.917 L66.83,43.917 L65.93,44.817 L43.916,66.83 L48.689,71.603 L56.212,64.08 C56.655,63.637 57.375,63.637 57.817,64.08 C58.26,64.523 58.261,65.243 57.818,65.686 L50.295,73.209 L55.068,77.982 L62.591,70.459 C63.034,70.016 63.754,70.016 64.196,70.458 C64.639,70.901 64.64,71.621 64.197,72.065 L56.674,79.588 L61.448,84.361 L72.988,72.821 C73.431,72.378 74.151,72.378 74.593,72.82 C75.036,73.263 75.037,73.984 74.594,74.427 L63.054,85.967 L65.555,88.468 C67.546,90.459 70.773,90.459 72.764,88.468 L88.468,72.764 C90.459,70.773 90.459,67.545 88.468,65.555 L66.83,43.917 L66.83,43.917 Z"></path>
                </g>
            </g>
        </g>
    </g>
</svg>