<?xml version="1.0" encoding="UTF-8" standalone="no"?>
<svg width="140px" height="140px" viewBox="0 0 140 140" version="1.1" xmlns="http://www.w3.org/2000/svg" xmlns:xlink="http://www.w3.org/1999/xlink">
    <!-- Generator: Sketch 3.6.1 (26313) - http://www.bohemiancoding.com/sketch -->
    <title>FanJam iOS SVG</title>
    <desc>Created with Sketch.</desc>
    <defs>
        <linearGradient x1="50%" y1="0%" x2="50%" y2="100%" id="linearGradient-1">
            <stop stop-color="#2E3641" offset="0%"></stop>
            <stop stop-color="#20262E" offset="100%"></stop>
        </linearGradient>
        <rect id="path-2" x="0" y="0" width="49.9860278" height="82.7629959"></rect>
        <rect id="path-4" x="0" y="0" width="49.9860278" height="82.7629959"></rect>
        <rect id="path-6" x="0" y="0" width="49.9860278" height="82.7629959"></rect>
        <rect id="path-8" x="0" y="0" width="49.9860278" height="82.7629959"></rect>
    </defs>
    <g id="AppIcons" stroke="none" stroke-width="1" fill="none" fill-rule="evenodd">
        <g id="FanJam-iOS-SVG">
            <rect id="Rectangle-33" fill="url(#linearGradient-1)" x="0" y="0" width="140" height="140" rx="30"></rect>
            <g id="fanjam_hand" transform="translate(45.000000, 28.750000)">
                <g id="Layer_1">
                    <g id="Group">
                        <g id="Clipped">
                            <mask id="mask-3" fill="white">
                                <use xlink:href="#path-2"></use>
                            </mask>
                            <g id="SVGID_1_"></g>
                            <path d="M49.9731384,34.5755175 L49.9731384,9.36257881 C49.9731384,4.19986395 45.7564621,0 40.5721598,0 C35.3878576,0 31.1711812,4.19986395 31.1711812,9.36257881 L31.1711812,18.7269916 C30.8738043,18.6958136 30.5727446,18.6783906 30.2670816,18.6783906 C27.8447944,18.6783906 25.6591199,19.6843405 24.0958193,21.294594 C22.8943428,20.6196814 21.5114939,20.229956 20.0365779,20.229956 C17.2810075,20.229956 14.8421482,21.5816153 13.334088,23.6485353 C12.1850898,23.0891647 10.9007528,22.7663804 9.53907933,22.7663804 C4.75066589,22.7663804 0.0230167921,26.9891694 0.0230167921,31.7584909 L0,34.5755175 L0,82.7629959 L49.9860278,82.7629959 L49.9860278,34.5755175 L49.9731384,34.5755175 L49.9731384,34.5755175 Z M46.9929241,53.3529442 C46.9929241,58.6770512 45.0245281,63.5499938 41.7828431,67.2986933 L41.7828431,78.8822482 L39.020828,78.8822482 L39.020828,69.9717509 C35.3280139,72.9556717 30.6270643,74.7484084 25.5118124,74.7484084 C19.8828257,74.7484084 14.7537638,72.5769503 10.9200869,69.035493 L10.9200869,78.8822482 L8.1580718,78.8822482 L8.1580718,65.9415321 C5.56638101,62.4074107 4.03070064,58.0562416 4.03070064,53.3529442 L6.79271569,53.3529442 C6.79271569,63.6334409 15.1910828,71.9974058 25.5127331,71.9974058 C35.8343833,71.9974058 44.2318298,63.6334409 44.2318298,53.3529442 L44.2318298,9.73121316 C44.2318298,7.67988223 42.557128,6.01185766 40.4975854,6.01185766 C38.4380428,6.01185766 36.7633411,7.67988223 36.7633411,9.73121316 L36.7633411,28.8763572 L36.7633411,39.1440158 L43.9095947,46.2608595 L41.95685,48.2058184 L34.1550782,40.4360701 C32.0725188,38.3618141 28.6862884,38.3618141 26.603729,40.4360701 C25.6011175,41.435601 25.0496352,42.7707543 25.0496352,44.1966906 C25.0496352,45.6217099 25.6020382,46.9568632 26.603729,47.9563941 L35.0085408,56.273592 L35.9899768,57.1639998 L34.5307122,58.8907124 L33.8880834,58.8907124 C30.2836537,58.8907124 27.3513144,61.8113602 27.3513144,65.4014186 L24.5892994,65.4014186 C24.5892994,61.1942186 27.4203648,57.6325872 31.2853445,56.5083442 L24.6509844,49.90227 C24.5036769,49.7564668 24.3692588,49.6005767 24.2357614,49.4446865 C23.1024146,50.4038694 21.6376259,50.987082 20.0374986,50.987082 C17.9604632,50.987082 16.1126752,50.0077251 14.9231673,48.4910056 C13.7336595,50.0068081 11.8849508,50.987082 9.80791546,50.987082 C6.22650261,50.987082 3.31257672,48.0847743 3.31257672,44.5167239 L3.31257672,33.2568703 C3.31257672,29.6888199 6.22650261,26.7865122 9.80791546,26.7865122 C11.3804227,26.7865122 12.8231152,27.3467997 13.948176,28.2757216 C14.8633237,25.8053213 17.2441807,24.0355096 20.0374986,24.0355096 C21.7821714,24.0355096 23.3638854,24.7278453 24.5322177,25.8456693 C25.6259757,23.8016744 27.7849508,22.4059991 30.2670816,22.4059991 C31.6572959,22.4059991 32.9425536,22.8470765 34.001326,23.5898472 L34.001326,9.73121316 C34.001326,6.1631628 36.9152519,3.26085507 40.4975854,3.26085507 C44.0799189,3.26085507 46.9938448,6.1631628 46.9938448,9.73121316 L46.9938448,53.3529442 L46.9929241,53.3529442 Z" id="Shape" fill="#3887E7" mask="url(#mask-3)"></path>
                        </g>
                        <g id="Clipped">
                            <mask id="mask-5" fill="white">
                                <use xlink:href="#path-4"></use>
                            </mask>
                            <g id="SVGID_1_"></g>
                            <path d="M9.80791546,29.5375148 C7.74929357,29.5375148 6.07367111,31.2055394 6.07367111,33.2568703 L6.07367111,44.5158069 C6.07367111,46.5643868 7.74929357,48.2342454 9.80791546,48.2342454 C11.8665373,48.2342454 13.5421598,46.5653038 13.5421598,44.5158069 L13.5421598,33.2568703 C13.5421598,31.2055394 11.8665373,29.5375148 9.80791546,29.5375148" id="Shape" fill="#3887E7" mask="url(#mask-5)"></path>
                        </g>
                        <g id="Clipped">
                            <mask id="mask-7" fill="white">
                                <use xlink:href="#path-6"></use>
                            </mask>
                            <g id="SVGID_1_"></g>
                            <path d="M20.0374986,26.7865122 C17.9788767,26.7865122 16.3041749,28.4545368 16.3041749,30.5058677 L16.3041749,33.2568703 L16.3041749,44.5158069 C16.3041749,46.5643868 17.9788767,48.2342454 20.0374986,48.2342454 C21.1330979,48.2342454 22.1099305,47.7537369 22.7930689,47.0027132 C21.8816039,44.5479019 22.2084424,41.7427963 23.7717429,39.5419942 L23.7717429,30.5058677 C23.7717429,28.4545368 22.0961204,26.7865122 20.0374986,26.7865122" id="Shape" fill="#3887E7" mask="url(#mask-7)"></path>
                        </g>
                        <g id="Clipped">
                            <mask id="mask-9" fill="white">
                                <use xlink:href="#path-8"></use>
                            </mask>
                            <g id="SVGID_1_"></g>
                            <path d="M30.2670816,25.1570017 C28.2084598,25.1570017 26.5328373,26.8250262 26.5328373,28.8763572 L26.5328373,30.5058677 L26.5328373,37.0981869 C28.8520093,35.8528997 31.6526925,35.8171367 34.0004053,36.9853958 L34.0004053,28.8763572 C34.001326,26.8250262 32.3257035,25.1570017 30.2670816,25.1570017" id="Shape" fill="#3887E7" mask="url(#mask-9)"></path>
                        </g>
                    </g>
                </g>
            </g>
        </g>
    </g>
</svg>