<?xml version="1.0" encoding="UTF-8" standalone="no"?>
<svg width="140px" height="140px" viewBox="0 0 146 146" version="1.1" xmlns="http://www.w3.org/2000/svg" xmlns:xlink="http://www.w3.org/1999/xlink">
    <!-- Generator: Sketch 3.6.1 (26313) - http://www.bohemiancoding.com/sketch -->
    <title>Zazzle iOS SVG</title>
    <desc>Created with Sketch.</desc>
    <defs>
        <radialGradient cx="50%" cy="50%" fx="50%" fy="50%" r="50%" id="radialGradient-1">
            <stop stop-color="#FFFFFF" stop-opacity="0.35" offset="0%"></stop>
            <stop stop-color="#5FACFC" stop-opacity="0.5" offset="100%"></stop>
        </radialGradient>
        <filter x="-50%" y="-50%" width="200%" height="200%" filterUnits="objectBoundingBox" id="filter-2">
            <feOffset dx="0" dy="2" in="SourceAlpha" result="shadowOffsetOuter1"></feOffset>
            <feGaussianBlur stdDeviation="2" in="shadowOffsetOuter1" result="shadowBlurOuter1"></feGaussianBlur>
            <feColorMatrix values="0 0 0 0 0   0 0 0 0 0   0 0 0 0 0  0 0 0 0.35 0" in="shadowBlurOuter1" type="matrix" result="shadowMatrixOuter1"></feColorMatrix>
            <feMerge>
                <feMergeNode in="shadowMatrixOuter1"></feMergeNode>
                <feMergeNode in="SourceGraphic"></feMergeNode>
            </feMerge>
        </filter>
        <rect id="path-3" x="0" y="0" width="138" height="138" rx="30"></rect>
    </defs>
    <g id="AppIcons" stroke="none" stroke-width="1" fill="none" fill-rule="evenodd">
        <g id="Zazzle-iOS-SVG" transform="translate(4.000000, 2.000000)">
            <g id="Rectangle-26" filter="url(#filter-2)">
                <use fill="#5FACFC" xlink:href="#path-3"></use>
                <use fill="url(#radialGradient-1)" xlink:href="#path-3"></use>
            </g>
            <path d="M62,73.0283688 L70.3404255,66.2765957 C70.3404255,66.2765957 67.5765396,65.7091971 67.212766,65.6808511 C66.8489924,65.6525051 66.5177305,65.9787234 66.5177305,65.9787234 C66.5177305,65.9787234 66.3426137,66.1154057 66.2695035,66.5248227 C66.1963934,66.9342397 66.1702128,67.1702128 66.0212766,67.5177305 C65.8723404,67.8652482 65.5744681,68.0638298 65.3262411,68.1631206 C65.0780142,68.2624113 64.6029373,68.3295567 64.1347518,68.0638298 C63.6665663,67.7981029 63.4397163,67.2198582 63.4397163,66.2765957 C63.4397163,65.3333333 64.035461,64.5886525 64.035461,64.5886525 C64.035461,64.5886525 64.3933327,64.0760973 64.929078,63.6950355 C65.3262411,63.4125436 65.8505496,63.2686228 66.2198582,63.1985816 C66.9835866,63.0537365 67.8085106,63.1489362 67.8085106,63.1489362 C67.8085106,63.1489362 68.4189157,63.1889416 69.1985816,63.3475177 C69.3170105,63.371605 69.4200797,63.3929565 69.5119846,63.4125435 C70.0251268,63.521906 70.1902315,63.5762633 70.7375887,63.7446809 C71.3829787,63.9432624 71.4822695,64.0310046 72.0283688,64.0425532 C72.5744681,64.0541018 73.1205674,63.6950355 73.1205674,63.6950355 L74.0638298,63 L76,65.0851064 L67.6099291,71.8865248 L68.5531915,72.0851064 L69.4964539,72.2836879 L70.4893617,72.5815603 C70.4893617,72.5815603 71.035461,72.7304965 71.2836879,72.5815603 C71.5319149,72.4326241 71.6162745,72.4770691 71.8297872,71.9361702 C72.0433,71.3952713 72.0130353,71.0564287 72.177305,70.6950355 C72.3415746,70.3336422 73.0055054,70.1471838 73.4680851,70.1985816 C73.9306648,70.2499793 74.5598278,70.729732 74.7092199,71.1914894 C74.8586119,71.6532467 74.7588652,72.7304965 74.6099291,73.1276596 C74.4609929,73.5248227 74.1253602,74.0037033 73.9148936,74.2198582 C73.4225411,74.7255175 72.7730496,75.1134752 72.7730496,75.1134752 C72.7730496,75.1134752 72.1722735,75.398031 71.3333333,75.4113475 C70.4943931,75.424664 69.6453901,75.1631206 69.6453901,75.1631206 L68.2056738,74.7163121 C68.2056738,74.7163121 67.3120567,74.4680851 66.8156028,74.3191489 C66.5499559,74.2660195 66.0237639,73.9759407 65.2269504,74.2695035 C64.4301368,74.5630664 63.6879433,75.1631206 63.6879433,75.1631206 L62,73.0283688 Z" id="Path-15" stroke="#FFFFFF" fill="#FFFFFF"></path>
        </g>
    </g>
</svg>