<?xml version="1.0" encoding="UTF-8" standalone="no"?>
<svg width="140px" height="140px" viewBox="0 0 138 139" version="1.1" xmlns="http://www.w3.org/2000/svg" xmlns:xlink="http://www.w3.org/1999/xlink">
    <!-- Generator: Sketch 3.6.1 (26313) - http://www.bohemiancoding.com/sketch -->
    <title>Biobeats SVG</title>
    <desc>Created with Sketch.</desc>
    <defs>
        <filter x="-50%" y="-50%" width="200%" height="200%" filterUnits="objectBoundingBox" id="filter-1">
            <feOffset dx="0" dy="-2" in="SourceAlpha" result="shadowOffsetInner1"></feOffset>
            <feGaussianBlur stdDeviation="1.5" in="shadowOffsetInner1" result="shadowBlurInner1"></feGaussianBlur>
            <feComposite in="shadowBlurInner1" in2="SourceAlpha" operator="arithmetic" k2="-1" k3="1" result="shadowInnerInner1"></feComposite>
            <feColorMatrix values="0 0 0 0 0   0 0 0 0 0   0 0 0 0 0  0 0 0 0.35 0" in="shadowInnerInner1" type="matrix" result="shadowMatrixInner1"></feColorMatrix>
            <feMerge>
                <feMergeNode in="SourceGraphic"></feMergeNode>
                <feMergeNode in="shadowMatrixInner1"></feMergeNode>
            </feMerge>
        </filter>
        <path id="path-2" d="M48.5,94 C75.2858104,94 97,72.9573832 97,47 C97,21.0426168 75.2858104,0 48.5,0 C46.2635959,0 44.0625458,0.146686692 41.9065359,0.430673376 C18.2396304,3.54804584 0,23.2098537 0,47 C0,72.9573832 21.7141896,94 48.5,94 Z"></path>
    </defs>
    <g id="AppIcons" stroke="none" stroke-width="1" fill="none" fill-rule="evenodd">
        <g id="Biobeats-SVG">
            <rect id="Rectangle-24" stroke="#D9D9D9" fill="#FFFFFF" filter="url(#filter-1)" x="0" y="0" width="138" height="139" rx="30"></rect>
            <g id="Path-5" transform="translate(20.000000, 22.000000)">
                <mask id="mask-3" fill="white">
                    <use xlink:href="#path-2"></use>
                </mask>
                <use id="Mask" fill="#54849A" xlink:href="#path-2"></use>
                <path d="M43,0 C43,0 45.3193456,68.4575285 46,74 C46.6806544,79.5424715 48.2920754,60.5866416 50,57 C51.7079246,53.4133584 52.9255166,52.7437931 56,53 C59.0744834,53.2562069 60.1093441,57.4328032 62,58 C63.8906559,58.5671968 64,56 66,56 C68,56 67.9255228,61.8032082 70,58 C72.0744772,54.1967918 70,38 77,38 C84,38 82.4556596,58.8940812 84,61 C85.5443404,63.1059188 89.8535568,50.4633892 92,51 C94.1464432,51.5366108 96,56 96,56 C96,56 95.3082555,58.766978 95,60 C94.6415888,61.4336446 94,63 94,63 C94,63 92,62 91,62 C90,62 88.1259513,70.6603066 85,72 C81.8740487,73.3396934 79.8171707,70.6343415 78,67 C76.1828293,63.3656585 77.9681949,56.4840975 77,56 C76.0318051,55.5159025 75.4472112,62.7258109 74,65 C72.5527888,67.2741891 71.5860707,67.2265815 70,67 C68.4139293,66.7734185 68.4206118,64 66,64 C63.5793882,64 63.0619896,67.5567254 60,67 C56.9380104,66.4432746 57,59 56,62 C55,65 49,94 49,94 L40,93 C40,93 38.8611829,40.023567 38,35 C37.1388171,29.976433 36.3102983,50.6070455 34,58 C31.6897017,65.3929545 28,67 25,67 C22,67 20.2284143,61.7726776 15,62 C9.77158571,62.2273224 5,68 5,68 L2,61 C2,61 8.19911407,55.4834072 14,55 C19.8008859,54.5165928 23,60 26,59 C29,58 29.9165717,46.8444268 32,32 C34.0834283,17.1555732 34,2 34,2 L43,0 Z" stroke="#FFFFFF" fill="#FFFFFF" mask="url(#mask-3)"></path>
            </g>
        </g>
    </g>
</svg>