<?xml version="1.0" encoding="UTF-8" standalone="no"?>
<svg width="92px" height="84px" viewBox="0 0 92 84" version="1.1" xmlns="http://www.w3.org/2000/svg" xmlns:xlink="http://www.w3.org/1999/xlink">
    <!-- Generator: Sketch 3.6.1 (26313) - http://www.bohemiancoding.com/sketch -->
    <title>Process-Consulting</title>
    <desc>Created with Sketch.</desc>
    <defs></defs>
    <g id="Content" stroke="none" stroke-width="1" fill="none" fill-rule="evenodd">
        <g id="Process-Consulting" fill="#CC3E4A">
            <g id="Group">
                <g>
                    <ellipse id="Oval" cx="49.176" cy="76.682" rx="11.305" ry="7.123"></ellipse>
                    <path d="M58.345,79.354 L65.915,79.354 L66.177,79.291 C66.281,79.266 67.79,78.906 69.823,77.988 C70.841,77.529 71.99,76.929 73.16,76.154 C74.329,75.375 75.519,74.422 76.605,73.242 L74.902,71.674 L76.472,73.375 C76.579,73.273 78.679,71.326 80.796,67.859 C81.853,66.125 82.914,64.005 83.714,61.546 C84.514,59.085 85.053,56.28 85.053,53.2 C85.053,53.065 85.051,52.927 85.049,52.79 L80.421,52.86 C80.422,52.975 80.424,53.089 80.424,53.2 C80.423,55.741 79.982,58.055 79.313,60.112 C78.311,63.198 76.788,65.704 75.52,67.417 C74.887,68.274 74.32,68.933 73.921,69.366 C73.721,69.583 73.565,69.745 73.461,69.846 C73.41,69.897 73.373,69.932 73.35,69.955 L73.329,69.975 L73.327,69.977 L73.931,70.625 L73.329,69.975 L73.327,69.977 L73.931,70.625 L73.329,69.975 L74.423,71.155 L73.33,69.973 L73.329,69.975 L74.423,71.155 L73.33,69.973 L73.329,69.975 L74.861,71.629 L73.331,69.971 L73.329,69.975 L74.861,71.629 L73.331,69.971 L73.263,70.035 L73.2,70.105 C72.416,70.957 71.515,71.687 70.597,72.294 C69.222,73.21 67.813,73.849 66.766,74.245 C66.242,74.444 65.809,74.583 65.518,74.671 C65.372,74.714 65.26,74.745 65.19,74.763 C65.157,74.773 65.131,74.779 65.118,74.783 L65.106,74.787 L65.151,74.971 L65.106,74.787 L65.106,74.787 L65.151,74.971 L65.106,74.787 L65.394,75.984 L65.109,74.785 L65.106,74.787 L65.394,75.984 L65.109,74.785 L65.522,76.525 L65.111,74.785 L65.109,74.785 L65.522,76.525 L65.111,74.785 L65.111,74.785 L65.634,76.996 L65.112,74.785 L65.111,74.785 L65.634,76.996 L65.112,74.785 L65.645,77.037 L65.645,74.723 L58.344,74.723 L58.344,79.354 L58.345,79.354 Z" id="Shape"></path>
                    <path d="M14.668,27.944 L17.501,29.924 L17.653,56.453 L15.497,58.93 C15.497,58.93 0.358,59.703 0.492,42.257 C0.493,42.256 1.322,26.951 14.668,27.944 L14.668,27.944 Z" id="Shape"></path>
                    <path d="M77.538,28.478 L74.706,30.458 L74.555,56.988 L76.709,59.463 C76.709,59.463 91.849,60.236 91.714,42.791 C91.714,42.791 90.885,27.485 77.538,28.478 L77.538,28.478 Z" id="Shape"></path>
                    <path d="M13.348,30.307 L11.166,29.564 L13.347,30.31 L13.348,30.307 L11.166,29.564 L13.347,30.31 L13.347,30.31 L13.353,30.293 C13.416,30.113 14.012,28.448 15.24,26.078 C16.16,24.299 17.436,22.123 19.1,19.875 C20.348,18.188 21.815,16.461 23.511,14.825 C26.056,12.371 29.113,10.124 32.744,8.491 C36.377,6.859 40.586,5.827 45.527,5.825 L45.544,5.825 L45.561,5.825 L45.542,4.379 L45.556,5.825 L45.561,5.825 L45.542,4.379 L45.556,5.825 L45.562,5.825 L45.582,5.825 C45.812,5.825 47.565,5.84 50.158,6.255 C52.104,6.567 54.522,7.102 57.126,8.015 C59.078,8.7 61.137,9.597 63.185,10.765 C66.257,12.521 69.305,14.885 71.984,18.095 C74.662,21.307 76.982,25.366 78.574,30.586 L83.343,29.133 C82.29,25.679 80.932,22.625 79.352,19.937 C76.588,15.231 73.147,11.658 69.549,8.98 C66.852,6.971 64.067,5.462 61.399,4.327 C57.396,2.624 53.656,1.758 50.812,1.312 C47.965,0.866 46.013,0.84 45.58,0.84 L45.494,0.84 L45.526,3.333 L45.526,0.84 C42.11,0.84 38.946,1.278 36.042,2.048 C30.959,3.396 26.682,5.763 23.165,8.523 C20.525,10.593 18.306,12.884 16.459,15.15 C13.688,18.551 11.751,21.898 10.492,24.413 C9.234,26.929 8.657,28.615 8.628,28.7 L13.348,30.307 L13.348,30.307 Z" id="Shape"></path>
                </g>
            </g>
        </g>
    </g>
</svg>