<?xml version="1.0" encoding="UTF-8" standalone="no"?>
<svg width="85px" height="69px" viewBox="0 0 85 69" version="1.1" xmlns="http://www.w3.org/2000/svg" xmlns:xlink="http://www.w3.org/1999/xlink">
    <!-- Generator: Sketch 3.6.1 (26313) - http://www.bohemiancoding.com/sketch -->
    <title>Process-Development</title>
    <desc>Created with Sketch.</desc>
    <defs></defs>
    <g id="Content" stroke="none" stroke-width="1" fill="none" fill-rule="evenodd">
        <g id="Process-Development" fill="#CC3E4A">
            <g id="Group">
                <g>
                    <path d="M27,16.9 C27.2,17.1 27.4,17.2 27.6,17.2 C27.8,17.2 28.1,17.1 28.2,16.9 L32,13.1 L28.2,9.3 C27.8,8.9 27.3,8.9 26.9,9.3 C26.5,9.7 26.5,10.2 26.9,10.6 L29.4,13.1 L27,15.6 C26.7,16 26.7,16.6 27,16.9 L27,16.9 Z" id="Shape"></path>
                    <path d="M33.3,16.1 C32.8,16.1 32.4,16.5 32.4,17 C32.4,17.5 32.8,17.9 33.3,17.9 L38.1,17.9 C38.6,17.9 39,17.5 39,17 C39,16.5 38.6,16.1 38.1,16.1 L33.3,16.1 L33.3,16.1 Z" id="Shape"></path>
                    <path d="M72.2,19.6 C73,19.4 74,19.3 74.9,19.3 C76.3,19.3 77.5,19.6 78,20 C79.4,21.1 80,22.1 80.1,22.1 L80.4,22.6 L80.6,22.5 L80.6,43 C80.6,44.5 80.1,45.9 79.2,47 L79.8,49.4 C81.6,47.8 82.7,45.6 82.7,43 L82.7,22 L85,21.4 L84.2,20.4 C84.1,20.3 83.6,19.5 82.7,18.5 L82.7,9.3 C82.7,4.6 78.9,0.8 74.2,0.8 L27.8,0.8 C23.1,0.8 19.3,4.6 19.3,9.3 L19.3,23 C18.5,23.2 17.8,23.5 17,23.8 L14.8,20.3 L10.1,23 L12,26.6 C10.6,27.7 9.4,28.9 8.3,30.3 L4.7,28.4 L2,33.1 L5.5,35.3 C4.8,37 4.4,38.7 4.1,40.4 L0,40.5 L0,46 L4.1,46.1 C4.3,47.8 4.8,49.6 5.5,51.2 L2,53.4 L4.7,58.1 L8.3,56.2 C9.4,57.6 10.6,58.8 12,59.9 L10.1,63.5 L14.8,66.2 L17,62.7 C18.7,63.4 20.4,63.8 22.1,64.1 L22.2,68.2 L27.7,68.2 L27.8,64.1 C29.5,63.9 31.3,63.4 32.9,62.7 L35.1,66.2 L39.8,63.5 L38,59.9 C39.4,58.8 40.6,57.6 41.7,56.2 L45.3,58.1 L48,53.4 L45,51.5 L67.9,51.5 L67.4,49.4 L27.8,49.4 C24.3,49.4 21.4,46.5 21.4,43 L21.4,9.3 C21.4,5.8 24.3,2.9 27.8,2.9 L74.2,2.9 C77.7,2.9 80.6,5.8 80.6,9.3 L80.6,16.2 C80,15.6 79.4,15 78.8,14.6 C76.7,13 73.6,12 70.7,12 C69.7,12 68.8,12.1 68,12.3 L56.5,15.2 L54.7,14 L49.1,15.4 L52.3,28 L57.9,26.6 L58.9,24.7 L62.8,23.7 L73.8,68.9 L82.9,66.6 L70.8,21.3 L72.2,19.6 L72.2,19.6 Z M9.5,47.1 C8.5,43.2 9,39 11.2,35.3 C13.1,32 16,29.7 19.3,28.4 L19.3,38.8 C19.1,39.1 18.9,39.4 18.7,39.7 C18,40.9 17.7,42.1 17.7,43.4 C17.7,44.9 16.9,46.3 15.6,47.1 L12.9,48.7 C11.6,49.3 9.9,48.6 9.5,47.1 L9.5,47.1 Z M36.2,51.5 C37,52.4 37.1,53.8 36.1,54.7 C31.1,59.5 23.3,60.7 17,57 C15.9,56.3 14.8,55.6 13.9,54.7 C12.8,53.6 13,51.8 14.3,51 L17,49.4 C18.3,48.6 19.9,48.7 21.2,49.4 L21.2,49.4 C21.9,49.8 22.7,50.1 23.4,50.2 C24.6,50.9 26.1,51.3 27.6,51.3 L36.2,51.3 L36.2,51.5 Z M57.7,23.2 L56.7,25.1 L53.5,25.9 L51.2,16.7 L54.4,15.9 L56.2,17.1 L68.4,14 C69.1,13.8 69.9,13.7 70.7,13.7 C73.2,13.7 76,14.6 77.7,16 C79.2,17.2 81,19.3 82,20.5 L81.1,20.7 C80.7,20.2 80,19.4 79,18.6 C77.9,17.7 76.1,17.5 74.8,17.5 C73.6,17.5 72.4,17.6 71.4,17.9 L71.2,18 L69.5,20.2 L57.7,23.2 L57.7,23.2 Z" id="Shape"></path>
                    <rect id="Rectangle-path" transform="translate(57.343845, 20.006685) rotate(255.723346) translate(-57.343845, -20.006685) " x="54.5938912" y="19.5566926" width="5.49990752" height="0.899984866"></rect>
                </g>
            </g>
        </g>
    </g>
</svg>