<?xml version="1.0" encoding="UTF-8" standalone="no"?>
<svg width="138px" height="139px" viewBox="0 0 138 139" version="1.1" xmlns="http://www.w3.org/2000/svg" xmlns:xlink="http://www.w3.org/1999/xlink">
    <!-- Generator: Sketch 3.6.1 (26313) - http://www.bohemiancoding.com/sketch -->
    <title>StayAxis iOS SVG</title>
    <desc>Created with Sketch.</desc>
    <defs>
        <linearGradient x1="50%" y1="0%" x2="50%" y2="100%" id="linearGradient-1">
            <stop stop-color="#318FEC" offset="0%"></stop>
            <stop stop-color="#044588" offset="100%"></stop>
        </linearGradient>
    </defs>
    <g id="AppIcons" stroke="none" stroke-width="1" fill="none" fill-rule="evenodd">
        <g id="StayAxis-iOS-SVG">
            <rect id="Rectangle-28" fill="url(#linearGradient-1)" x="0" y="0" width="138" height="139" rx="30"></rect>
            <path d="M90.8061487,71 L91,71 L108,71 C108,71 101.70346,84.5596672 92,97 C82.2965404,109.440333 69,121 69,121 C69,121 56.1854273,110.086089 47,98 C37.8145727,85.9139114 31,71 31,71 L47.1938513,71 C47.0659973,71.6542747 47,72.3218824 47,73 C47,81.2842712 56.8497355,88 69,88 C81.1502645,88 91,81.2842712 91,73 C91,72.3218824 90.9340027,71.6542747 90.8061487,71 Z" id="Combined-Shape" fill="#FFFFFF"></path>
            <path d="M112,55.1000181 L112,55 L26,55 L26,55.1000181 C23.7177597,55.5632884 22,57.5810421 22,60 C22,62.4189579 23.7177597,64.4367116 26,64.8999819 L26,65 L112,65 L112,64.8999819 C114.28224,64.4367116 116,62.4189579 116,60 C116,57.5810421 114.28224,55.5632884 112,55.1000181 Z M73.8652445,24.2193152 C91.7930433,26.0323225 105.991729,38.8784014 107.804325,55 L31.1956754,55 C33.0082707,38.8784014 47.2069567,26.0323225 65.1347555,24.2193152 C65.0467371,23.8290471 65,23.420588 65,23 C65,20.2385763 67.0147186,18 69.5,18 C71.9852814,18 74,20.2385763 74,23 C74,23.420588 73.9532629,23.8290471 73.8652445,24.2193152 Z M45,40 L48,39.9999999 C48,39.9999999 51.5169419,35.5130683 57,33 C62.4830581,30.4869317 71,30.0000001 71,30.0000001 L71,28 C71,28 63.0784882,27.4607559 56,31 C48.9215118,34.5392441 45,40 45,40 Z" id="Combined-Shape" fill="#FFFFFF"></path>
        </g>
    </g>
</svg>