<?xml version="1.0" encoding="UTF-8" standalone="no"?>
<svg width="140px" height="140px" viewBox="0 0 148 148" version="1.1" xmlns="http://www.w3.org/2000/svg" xmlns:xlink="http://www.w3.org/1999/xlink">
    <!-- Generator: Sketch 3.6.1 (26313) - http://www.bohemiancoding.com/sketch -->
    <title>Zazzle Android SVG</title>
    <desc>Created with Sketch.</desc>
    <defs>
        <filter x="-50%" y="-50%" width="200%" height="200%" filterUnits="objectBoundingBox" id="filter-1">
            <feOffset dx="0" dy="2" in="SourceAlpha" result="shadowOffsetOuter1"></feOffset>
            <feGaussianBlur stdDeviation="2" in="shadowOffsetOuter1" result="shadowBlurOuter1"></feGaussianBlur>
            <feColorMatrix values="0 0 0 0 0   0 0 0 0 0   0 0 0 0 0  0 0 0 0.35 0" in="shadowBlurOuter1" type="matrix" result="shadowMatrixOuter1"></feColorMatrix>
            <feMerge>
                <feMergeNode in="shadowMatrixOuter1"></feMergeNode>
                <feMergeNode in="SourceGraphic"></feMergeNode>
            </feMerge>
        </filter>
    </defs>
    <g id="AppIcons" stroke="none" stroke-width="1" fill="none" fill-rule="evenodd">
        <g id="Zazzle-Android-SVG" transform="translate(4.000000, 2.000000)">
            <path d="M70,140 C108.659932,140 140,108.659932 140,70 C140,31.3400675 108.659932,0 70,0 C31.3400675,0 0,31.3400675 0,70 C0,108.659932 31.3400675,140 70,140 Z" id="Oval-3" fill="#5CAAFC" filter="url(#filter-1)"></path>
            <path d="M25.5405405,94.2792793 L78.5135135,51.3963964 C78.5135135,51.3963964 60.9591026,47.792648 58.6486486,47.6126126 C56.3381947,47.4325772 54.2342342,49.5045045 54.2342342,49.5045045 C54.2342342,49.5045045 53.122006,50.372622 52.6576577,52.972973 C52.1933093,55.5733239 52.027027,57.0720721 51.0810811,59.2792793 C50.1351351,61.4864865 48.2432432,62.7477477 46.6666667,63.3783784 C45.0900901,64.009009 42.0727097,64.4354727 39.0990991,62.7477477 C36.1254885,61.0600228 34.6846847,57.3873874 34.6846847,51.3963964 C34.6846847,45.4054054 38.4684685,40.6756757 38.4684685,40.6756757 C38.4684685,40.6756757 40.7414373,37.4202578 44.1441441,35 C46.6666667,33.2057946 49.996734,32.2917036 52.3423423,31.8468468 C57.1930502,30.926885 62.4324324,31.5315315 62.4324324,31.5315315 C62.4324324,31.5315315 66.3093296,31.7856203 71.2612613,32.7927928 C72.0134453,32.9457794 72.6680735,33.0813903 73.2517939,33.2057946 C76.5109408,33.9003942 77.5595782,34.245636 81.036036,35.3153153 C85.1351351,36.5765766 85.7657658,37.1338579 89.2342342,37.2072072 C92.7027027,37.2805565 96.1711712,35 96.1711712,35 L102.162162,30.5855856 L114.459459,43.8288288 L61.1711712,87.027027 L67.1621622,88.2882883 L73.1531532,89.5495495 L79.4594595,91.4414414 C79.4594595,91.4414414 82.9279279,92.3873874 84.5045045,91.4414414 C86.0810811,90.4954955 86.6168786,90.7777813 87.972973,87.3423423 C89.3290673,83.9069034 89.1368458,81.7547951 90.1801802,79.4594595 C91.2235145,77.1641239 95.4403724,75.9798612 98.3783784,76.3063063 C101.316384,76.6327514 105.31242,79.6798295 106.261261,82.6126126 C107.210103,85.5453958 106.576577,92.3873874 105.630631,94.9099099 C104.684685,97.4324324 102.552963,100.473971 101.216216,101.846847 C98.0891124,105.058467 93.963964,107.522523 93.963964,107.522523 C93.963964,107.522523 90.1482238,109.329837 84.8198198,109.414414 C79.4914158,109.498992 74.0990991,107.837838 74.0990991,107.837838 L64.954955,105 C64.954955,105 59.2792793,103.423423 56.1261261,102.477477 C54.4389089,102.140034 51.0968788,100.297641 46.036036,102.162162 C40.9751933,104.026683 36.2612613,107.837838 36.2612613,107.837838 L25.5405405,94.2792793 Z" id="Path-15" stroke="#FFFFFF" fill="#FFFFFF"></path>
        </g>
    </g>
</svg>