<?xml version="1.0" encoding="UTF-8" standalone="no"?>
<svg width="575px" height="414px" viewBox="0 0 575 414" version="1.1" xmlns="http://www.w3.org/2000/svg" xmlns:xlink="http://www.w3.org/1999/xlink">
    <!-- Generator: Sketch 3.6.1 (26313) - http://www.bohemiancoding.com/sketch -->
    <title>404 Image</title>
    <desc>Created with Sketch.</desc>
    <defs></defs>
    <g id="Website" stroke="none" stroke-width="1" fill="none" fill-rule="evenodd">
        <g id="404" transform="translate(-258.000000, -255.000000)">
            <g id="404-Image" transform="translate(244.000000, 185.000000)">
                <g id="Mobiles-+-Kaboom" fill="#CC3D4A">
                    <g id="Mobiles" transform="translate(3.232486, 210.349211)">
                        <g id="Android" transform="translate(445.924584, 138.296427) scale(-1, 1) rotate(-310.000000) translate(-445.924584, -138.296427) translate(378.923348, 3.327591)">
                            <g id="Group" transform="translate(0.000000, 0.000000)">
                                <path d="M133.970214,15.1098157 C133.970214,12.7384141 134.290797,5.82807177 125.964651,4.07425387 C107.886221,0.263822179 67.0584483,1.86561972e-13 67.0584483,1.86561972e-13 C67.0584483,1.86561972e-13 26.2336721,0.263822179 8.15524122,4.07425387 C-0.17090387,5.82507379 0.146682089,12.7384141 0.146682089,15.1098157 L0.146682089,254.705324 C0.146682089,257.076725 -0.17090387,263.993064 8.15224512,265.743883 C26.230676,269.548319 67.0584483,269.818137 67.0584483,269.818137 C67.0584483,269.818137 107.886221,269.548319 125.961655,265.743883 C134.290797,263.993064 133.970214,257.076725 133.970214,254.705324 L133.970214,15.1098157 L133.970214,15.1098157 Z M67.0584483,10.289065 C68.6703468,10.289065 69.9796399,11.5991819 69.9796399,13.2120948 C69.9796399,14.8250077 68.6703468,16.1351246 67.0584483,16.1351246 C65.4465497,16.1351246 64.1372567,14.8250077 64.1372567,13.2120948 C64.1372567,11.5991819 65.4465497,10.289065 67.0584483,10.289065 L67.0584483,10.289065 Z M128.145808,238.222433 L5.97108873,238.222433 L5.97108873,23.4412002 L128.142812,23.4412002 L128.142812,238.222433 L128.145808,238.222433 Z" id="Shape"></path>
                            </g>
                        </g>
                        <g id="iOS" transform="translate(150.263099, 140.825042) rotate(-310.000000) translate(-150.263099, -140.825042) translate(83.763099, 1.325042)">
                            <g id="Group" transform="translate(0.000000, -0.000000)">
                                <g transform="translate(0.000000, -0.000000)">
                                    <rect id="Rectangle-path" x="88.7499385" y="0.0934840488" width="25.039059" height="2.22869781"></rect>
                                    <rect id="Rectangle-path" x="0.214143631" y="32.7117987" width="2.2296131" height="13.4319966"></rect>
                                    <rect id="Rectangle-path" x="0.214143631" y="52.9117335" width="2.2296131" height="13.4288487"></rect>
                                    <path d="M113.914964,3.44282653 L21.7103852,3.44282653 C11.7054688,3.44282653 3.56486163,11.5800919 3.56486163,21.5809011 L3.56486163,260.322285 C3.56486163,270.326242 11.7054688,278.463507 21.7103852,278.463507 L113.914964,278.463507 C123.919881,278.463507 132.060488,270.326242 132.060488,260.322285 L132.060488,21.5809011 C132.060488,11.5832397 123.916732,3.44282653 113.914964,3.44282653 L113.914964,3.44282653 Z M55.2931452,23.730902 L80.3290551,23.730902 L80.3290551,25.9690434 L55.2931452,25.9690434 L55.2931452,23.730902 L55.2931452,23.730902 Z M67.678835,269.095422 C61.4970122,269.095422 56.4835319,264.087147 56.4835319,257.904714 C56.4835319,251.722281 61.4970122,246.710859 67.678835,246.710859 C73.8638069,246.710859 78.8772872,251.722281 78.8772872,257.904714 C78.8772872,264.087147 73.8638069,269.095422 67.678835,269.095422 L67.678835,269.095422 Z M124.212754,237.604047 L11.4094467,237.604047 L11.4094467,46.1469431 L124.212754,46.1469431 L124.212754,237.604047 L124.212754,237.604047 Z" id="Shape"></path>
                                </g>
                            </g>
                        </g>
                    </g>
                    <g id="Kaboom" transform="translate(299.980219, 274.266586) rotate(-22.000000) translate(-299.980219, -274.266586) translate(56.134375, 77.020960)">
                        <g id="Group" transform="translate(0.000000, -0.000000)">
                            <path d="M286.522197,0.0188906477 L238.591038,101.616765 L201.854309,4.89016777 L181.759826,110.329575 L108.366405,0.451063098 L134.570337,135.176823 L53.4133816,74.4859387 L110.9169,161.854135 L10.2577301,161.656723 L100.234702,211.447257 L0.146459186,274.89124 L116.391393,249.035589 L64.9653086,325.530113 L152.519844,279.783859 L158.266461,340.133274 L190.168988,294.947243 L206.005533,394.490964 L238.591038,301.189734 L261.001243,357.86835 L279.222873,298.922162 L325.201143,387.181381 L318.029878,286.671941 L430.961303,345.031228 L363.458564,245.322108 L487.62177,234.651183 L367.391022,201.453936 L454.598733,155.440909 L360.545238,161.992857 L456.759717,63.3988479 L330.894403,126.768134 L359.611479,48.7369974 L293.512047,109.726667 L286.522197,0.0188906477 Z" id="Shape"></path>
                        </g>
                    </g>
                </g>
                <path d="M257.583252,231.930176 L257.583252,258 L263.039307,258 L263.039307,249.90625 L268.188232,249.90625 C273.68042,249.90625 277.492432,246.311035 277.492432,240.945312 C277.492432,235.525391 273.824951,231.930176 268.459229,231.930176 L257.583252,231.930176 Z M263.039307,236.410645 L267.013916,236.410645 C270.157471,236.410645 271.946045,238.000488 271.946045,240.963379 C271.946045,243.890137 270.121338,245.47998 266.99585,245.47998 L263.039307,245.47998 L263.039307,236.410645 Z M288.45874,254.350586 C286.634033,254.350586 285.351318,253.447266 285.351318,251.96582 C285.351318,250.538574 286.453369,249.725586 288.71167,249.562988 L292.740479,249.310059 L292.740479,250.773438 C292.740479,252.796875 290.897705,254.350586 288.45874,254.350586 L288.45874,254.350586 Z M286.724365,258.307129 C289.307861,258.307129 291.47583,257.223145 292.505615,255.398438 L292.830811,255.398438 L292.830811,258 L297.925537,258 L297.925537,244.395996 C297.925537,240.132324 294.94458,237.63916 289.669189,237.63916 C284.664795,237.63916 281.286377,239.95166 280.943115,243.637207 L285.784912,243.637207 C286.218506,242.444824 287.483154,241.794434 289.380127,241.794434 C291.548096,241.794434 292.740479,242.733887 292.740479,244.395996 L292.740479,246.021973 L287.916748,246.311035 C282.966553,246.600098 280.202393,248.695801 280.202393,252.309082 C280.202393,255.958496 282.894287,258.307129 286.724365,258.307129 L286.724365,258.307129 Z M316.497803,247.864746 C316.497803,251.369629 314.799561,253.555664 311.945068,253.555664 C309.090576,253.555664 307.4646,251.369629 307.4646,247.84668 C307.4646,244.359863 309.108643,242.155762 311.945068,242.155762 C314.781494,242.155762 316.497803,244.359863 316.497803,247.864746 L316.497803,247.864746 Z M311.872803,265.551758 C317.888916,265.551758 321.700928,262.606934 321.700928,257.927734 L321.700928,238.072754 L316.606201,238.072754 L316.606201,241.270508 L316.281006,241.270508 C315.215088,239.084473 312.920654,237.747559 310.22876,237.747559 C305.170166,237.747559 302.062744,241.686035 302.062744,247.864746 C302.062744,253.862793 305.1521,257.710938 310.120361,257.710938 C312.920654,257.710938 315.016357,256.59082 316.118408,254.495117 L316.443604,254.495117 L316.443604,258.180664 C316.443604,260.420898 314.799561,261.72168 311.981201,261.72168 C309.704834,261.72168 308.223389,260.944824 307.952393,259.716309 L302.749268,259.716309 C303.074463,263.221191 306.579346,265.551758 311.872803,265.551758 L311.872803,265.551758 Z M335.593994,241.667969 C338.051025,241.667969 339.640869,243.312012 339.749268,245.949707 L331.258057,245.949707 C331.438721,243.366211 333.155029,241.667969 335.593994,241.667969 L335.593994,241.667969 Z M339.857666,252.327148 C339.297607,253.645996 337.870361,254.386719 335.792725,254.386719 C333.046631,254.386719 331.312256,252.543945 331.23999,249.581055 L331.23999,249.310059 L344.91626,249.310059 L344.91626,247.702148 C344.91626,241.378906 341.44751,237.63916 335.575928,237.63916 C329.650146,237.63916 326.000732,241.649902 326.000732,248.135742 C326.000732,254.603516 329.577881,258.433594 335.648193,258.433594 C340.526123,258.433594 343.95874,256.084961 344.753662,252.327148 L339.857666,252.327148 Z M206.383057,302 L206.383057,285.686035 L206.708252,285.686035 L218.740479,302 L223.25708,302 L223.25708,275.930176 L218.035889,275.930176 L218.035889,292.171875 L217.710693,292.171875 L205.7146,275.930176 L201.161865,275.930176 L201.161865,302 L206.383057,302 Z M237.890869,298.133789 C235.07251,298.133789 233.482666,295.911621 233.482666,292.027344 C233.482666,288.197266 235.090576,285.938965 237.890869,285.938965 C240.673096,285.938965 242.299072,288.197266 242.299072,292.027344 C242.299072,295.893555 240.691162,298.133789 237.890869,298.133789 L237.890869,298.133789 Z M237.890869,302.433594 C244.015381,302.433594 247.700928,298.549316 247.700928,292.027344 C247.700928,285.55957 243.961182,281.63916 237.890869,281.63916 C231.820557,281.63916 228.080811,285.577637 228.080811,292.027344 C228.080811,298.549316 231.766357,302.433594 237.890869,302.433594 L237.890869,302.433594 Z M253.482178,277.339355 L253.482178,282.271484 L250.374756,282.271484 L250.374756,286.408691 L253.482178,286.408691 L253.482178,296.616211 C253.482178,300.500488 255.397217,302.072266 260.239014,302.072266 C261.250732,302.072266 262.226318,301.963867 262.876709,301.837402 L262.876709,297.82666 C262.37085,297.880859 262.009521,297.898926 261.322998,297.898926 C259.534424,297.898926 258.739502,297.104004 258.739502,295.369629 L258.739502,286.408691 L262.876709,286.408691 L262.876709,282.271484 L258.739502,282.271484 L258.739502,277.339355 L253.482178,277.339355 Z M282.767822,302 L282.767822,291.84668 L293.372803,291.84668 L293.372803,287.384277 L282.767822,287.384277 L282.767822,280.591309 L294.384521,280.591309 L294.384521,275.930176 L277.311768,275.930176 L277.311768,302 L282.767822,302 Z M307.735596,298.133789 C304.917236,298.133789 303.327393,295.911621 303.327393,292.027344 C303.327393,288.197266 304.935303,285.938965 307.735596,285.938965 C310.517822,285.938965 312.143799,288.197266 312.143799,292.027344 C312.143799,295.893555 310.535889,298.133789 307.735596,298.133789 L307.735596,298.133789 Z M307.735596,302.433594 C313.860107,302.433594 317.545654,298.549316 317.545654,292.027344 C317.545654,285.55957 313.805908,281.63916 307.735596,281.63916 C301.665283,281.63916 297.925537,285.577637 297.925537,292.027344 C297.925537,298.549316 301.611084,302.433594 307.735596,302.433594 L307.735596,302.433594 Z M339.857666,282.072754 L334.600342,282.072754 L334.600342,293.562988 C334.600342,296.21875 333.191162,297.862793 330.571533,297.862793 C328.150635,297.862793 326.904053,296.453613 326.904053,293.70752 L326.904053,282.072754 L321.646729,282.072754 L321.646729,295.0625 C321.646729,299.6875 324.320557,302.433594 328.620361,302.433594 C331.637451,302.433594 333.498291,301.114746 334.437744,298.802246 L334.762939,298.802246 L334.762939,302 L339.857666,302 L339.857666,282.072754 Z M345.133057,302 L350.390381,302 L350.390381,290.509766 C350.390381,287.890137 351.889893,286.173828 354.328857,286.173828 C356.822021,286.173828 357.996338,287.619141 357.996338,290.365234 L357.996338,302 L363.253662,302 L363.253662,289.118652 C363.253662,284.349121 360.868896,281.63916 356.442627,281.63916 C353.497803,281.63916 351.474365,283.030273 350.552979,285.270508 L350.227783,285.270508 L350.227783,282.072754 L345.133057,282.072754 L345.133057,302 Z M375.484619,302.307129 C378.248779,302.307129 380.50708,301.024414 381.572998,298.874512 L381.898193,298.874512 L381.898193,302 L386.99292,302 L386.99292,274.466797 L381.735596,274.466797 L381.735596,285.252441 L381.428467,285.252441 C380.398682,283.04834 378.176514,281.747559 375.484619,281.747559 C370.480225,281.747559 367.372803,285.667969 367.372803,292.009277 C367.372803,298.368652 370.462158,302.307129 375.484619,302.307129 L375.484619,302.307129 Z M377.273193,286.155762 C380.073486,286.155762 381.789795,288.414062 381.789795,292.04541 C381.789795,295.694824 380.091553,297.916992 377.273193,297.916992 C374.454834,297.916992 372.774658,295.712891 372.774658,292.027344 C372.774658,288.37793 374.4729,286.155762 377.273193,286.155762 L377.273193,286.155762 Z M393.514893,275.930176 L393.984619,293.418457 L398.80835,293.418457 L399.296143,275.930176 L393.514893,275.930176 Z M393.117432,299.470703 C393.117432,301.367676 394.38208,302.541992 396.405518,302.541992 C398.447021,302.541992 399.693604,301.367676 399.693604,299.470703 C399.693604,297.555664 398.447021,296.381348 396.405518,296.381348 C394.38208,296.381348 393.117432,297.555664 393.117432,299.470703 L393.117432,299.470703 Z" id="Page--Not-Found!" fill="#FFFFFF"></path>
            </g>
        </g>
    </g>
</svg>